<svg width="69" height="69" viewBox="0 0 69 69" fill="none" xmlns="http://www.w3.org/2000/svg">
<path d="M58.671 51.594C58.602 51.407 58.519 51.209 58.411 50.972L58.254 50.628L58.153 49L58.2871 48.769C58.3161 48.719 58.339 48.67 58.357 48.618C58.682 47.703 58.732 46.63 58.49 45.748L58.383 45.3589L59.214 43.349L59.5651 43.149C60.3591 42.696 61.0821 41.9009 61.4981 41.0229C61.522 40.9729 61.54 40.922 61.555 40.866L61.6231 40.607L62.844 39.526L63.198 39.393C63.442 39.301 63.64 39.22 63.822 39.136C65.612 38.311 68.8191 36.313 68.6921 34.026C68.5751 31.935 65.5001 30.08 63.8171 29.308C63.612 29.214 63.403 29.131 63.193 29.052L62.839 28.92L61.616 27.841L61.548 27.582C61.534 27.527 61.515 27.476 61.491 27.426C61.074 26.549 60.351 25.755 59.556 25.302L59.2051 25.102L58.3711 23.0929L58.477 22.704C58.718 21.822 58.667 20.749 58.34 19.834C58.322 19.782 58.298 19.733 58.27 19.683L58.1361 19.453L58.2351 17.824L58.392 17.48C58.499 17.244 58.582 17.047 58.652 16.857C59.719 13.962 60.278 9.09496 56.061 9.05596C54.588 9.04196 53.074 9.40198 51.699 9.91198C51.511 9.98198 51.313 10.065 51.076 10.172L50.732 10.329L49.104 10.43L48.8731 10.295C48.827 10.268 48.7771 10.245 48.722 10.225C47.807 9.89997 46.734 9.84997 45.852 10.092L45.463 10.199L44.444 9.77794L43.4251 9.35595L43.225 9.00597C42.771 8.21197 41.977 7.48899 41.099 7.07299C41.046 7.04799 40.994 7.02898 40.9421 7.01598L40.683 6.94799L39.602 5.72698L39.469 5.37298C39.378 5.12998 39.296 4.93095 39.212 4.74895C38.599 3.41595 37.781 2.09197 36.729 1.06197C33.716 -1.88803 30.674 1.952 29.385 4.755C29.301 4.938 29.219 5.13696 29.129 5.37896L28.997 5.73296L27.9161 6.95598L27.658 7.02398C27.603 7.03898 27.5511 7.05698 27.5021 7.08098C26.625 7.49798 25.831 8.22198 25.378 9.01598L25.178 9.36699L23.169 10.201L22.7801 10.095C21.8971 9.85396 20.825 9.90499 19.91 10.232C19.858 10.251 19.808 10.274 19.759 10.302L19.5281 10.4369L17.9 10.337L17.5561 10.181C17.3511 10.088 17.1451 9.99995 16.9331 9.92095C15.1961 9.27795 11.709 8.41998 10.149 9.81798C8.44405 11.346 9.30305 15.026 9.98805 16.875C10.057 17.062 10.14 17.2599 10.248 17.4969L10.405 17.841L10.506 19.469L10.372 19.6999C10.343 19.7489 10.32 19.7989 10.302 19.8509C9.97705 20.7659 9.92705 21.8389 10.169 22.7209L10.276 23.11L9.44505 25.12L9.09404 25.3199C8.30005 25.7729 7.57705 26.568 7.16105 27.446C7.13705 27.496 7.11905 27.547 7.10405 27.603L7.03605 27.861L5.81505 28.9419L5.46105 29.0749C5.21705 29.1669 5.01905 29.248 4.83705 29.332C3.17205 30.099 0.271048 31.883 0.0190482 33.893C-0.279952 36.279 3.01305 38.318 4.84305 39.159C5.04805 39.253 5.25705 39.336 5.46705 39.415L5.82105 39.547L7.04405 40.6269L7.11205 40.8849C7.12705 40.9399 7.14505 40.992 7.16905 41.042C7.58605 41.919 8.31005 42.713 9.10405 43.165L9.45504 43.365L10.289 45.374L10.183 45.764C9.94205 46.646 9.99305 47.719 10.3201 48.634C10.3391 48.686 10.3621 48.736 10.39 48.785L10.524 49.0149L10.425 50.644L10.268 50.988C10.161 51.223 10.078 51.421 10.008 51.611C9.52705 52.916 9.17404 54.33 9.17904 55.728C9.18604 57.304 10.052 59.001 11.731 59.255C13.408 59.508 15.3871 59.138 16.9601 58.556C17.149 58.486 17.346 58.404 17.582 58.296L17.926 58.139L19.554 58.038L19.785 58.173C19.831 58.2 19.88 58.224 19.936 58.243C20.851 58.569 21.9241 58.618 22.8061 58.376L23.195 58.269L24.214 58.691L25.2331 59.112L25.4331 59.4629C25.886 60.2569 26.681 60.98 27.559 61.396C27.612 61.421 27.6641 61.44 27.7161 61.453L27.975 61.521L29.0561 62.742L29.189 63.0959C29.28 63.3389 29.3621 63.537 29.4461 63.72C30.1481 65.243 31.289 66.903 32.654 67.908C34.021 68.9149 35.834 68.325 36.951 67.214C37.942 66.228 38.6911 64.978 39.2721 63.714C39.3561 63.531 39.438 63.332 39.528 63.09L39.6601 62.736L40.741 61.513L40.999 61.4449C41.054 61.4309 41.105 61.412 41.156 61.388C42.033 60.971 42.827 60.247 43.28 59.453L43.48 59.102L45.49 58.268L45.879 58.374C46.761 58.615 47.834 58.564 48.749 58.238C48.802 58.219 48.851 58.196 48.9 58.167L49.13 58.033L50.7591 58.132L51.103 58.288C51.307 58.381 51.514 58.47 51.726 58.547C53.615 59.244 57.3871 60.1259 58.8601 58.2259C60.1021 56.6249 59.307 53.312 58.671 51.594ZM40.439 8.49999C40.462 8.51399 40.484 8.52795 40.51 8.54095C41.084 8.81295 41.8111 9.32796 42.0111 10.233C42.097 10.62 41.971 11.088 41.691 11.426C41.461 11.702 41.1611 11.849 40.8451 11.839C40.7141 11.835 40.591 11.809 40.478 11.763C40.313 11.695 40.169 11.581 40.051 11.427L40.001 11.362L40.012 11.281C40.129 10.394 40.166 9.51599 40.1231 8.67199L40.104 8.29699L40.439 8.49999ZM24.137 41.85C23.556 42.051 23.0831 42.226 22.6471 42.402L22.385 42.508L22.3751 42.2259C22.3581 41.7389 22.328 41.205 22.282 40.544L22.2721 40.402L24.3001 39.561L24.299 39.858C24.298 40.529 24.288 41.122 24.27 41.671L24.2651 41.807L24.137 41.85ZM23.8321 44.5019L24.0801 44.473L24.051 44.7209C23.999 45.1719 23.937 45.613 23.868 46.033L23.842 46.189L23.684 46.198C23.277 46.221 22.87 46.256 22.473 46.301L22.227 46.329L22.255 46.0829C22.299 45.6879 22.3331 45.2799 22.3561 44.8719L22.365 44.714L22.521 44.688C22.94 44.617 23.3811 44.5549 23.8321 44.5019ZM32.493 21.642L32.5521 21.764L32.459 21.863C32.083 22.265 31.671 22.692 31.199 23.167L30.99 23.378L30.1491 21.35L30.256 21.2569C30.755 20.8229 31.153 20.4659 31.51 20.1319L31.7161 19.939L31.827 20.199C32.013 20.633 32.224 21.092 32.493 21.642ZM33.26 18.363L33.365 18.245C33.637 17.941 33.9001 17.628 34.1491 17.316L34.3041 17.1219L34.459 17.316C34.708 17.628 34.9721 17.9399 35.2441 18.2439L35.35 18.362L35.258 18.491C35.011 18.837 34.743 19.1929 34.461 19.5489L34.306 19.745L34.1511 19.5489C33.869 19.1929 33.6 18.837 33.353 18.492L33.26 18.363ZM23.799 33.329L22.6471 33.905L23.573 33.0099C23.974 32.6219 24.393 32.2059 24.9331 31.6579L25.0261 31.563L26.4941 32.17L26.018 32.345C25.362 32.586 24.678 32.89 23.799 33.329ZM26.021 36.118L26.497 36.292L25.0301 36.901L24.936 36.806C24.398 36.262 23.978 35.845 23.574 35.456L22.648 34.5619L23.8001 35.136C24.6891 35.58 25.368 35.879 26.021 36.118ZM25.8581 29.553L25.859 29.42C25.863 28.651 25.861 28.059 25.851 27.503L25.8281 26.216L26.236 27.4369C26.548 28.3689 26.8181 29.067 27.1121 29.701L27.326 30.1609L25.8581 29.553ZM27.514 26.157L26.292 25.75L27.5801 25.771C28.1411 25.78 28.732 25.782 29.497 25.777L29.63 25.776L30.239 27.243L29.779 27.03C29.147 26.738 28.453 26.47 27.514 26.157ZM32.018 14.121L31.943 13.0409L32.395 14.025C32.645 14.57 32.9421 15.1169 33.2761 15.6529L33.347 15.767L33.267 15.875C33.069 16.143 32.879 16.386 32.687 16.62L32.422 16.941L32.34 16.5329C32.184 15.7539 32.075 14.942 32.018 14.121ZM34.477 13.9629L34.3021 14.293L34.127 13.9629C33.927 13.5849 33.756 13.224 33.604 12.86C32.486 10.178 32.6891 7.22695 34.1341 5.15795L34.296 4.92595L34.458 5.15795C35.906 7.22595 36.1131 10.1769 34.9981 12.8589C34.847 13.2249 34.676 13.5859 34.477 13.9629ZM31.016 17.874L31.0391 17.928L31.062 18.0229C31.07 18.0539 31.079 18.0839 31.088 18.1139L31.141 18.302L31.0581 18.384C30.659 18.777 30.221 19.185 29.719 19.63L29.5111 19.814L26.7781 13.228L27.176 13.3459C27.721 13.5069 28.2601 13.471 28.7351 13.242L28.949 13.139L29.012 13.368C29.433 14.889 30.088 16.363 31.016 17.874ZM28.1401 22.184L28.9811 24.212H28.684C28.019 24.211 27.4261 24.201 26.8711 24.183L26.7351 24.1789L26.691 24.05C26.492 23.472 26.316 22.999 26.139 22.56L26.033 22.298L26.3151 22.288C26.8051 22.271 27.34 22.2409 27.997 22.1949L28.1401 22.184ZM24.256 26.66L24.2611 26.7959C24.2801 27.344 24.29 27.9369 24.292 28.6089L24.2931 28.906L22.264 28.0669L22.2741 27.925C22.3201 27.267 22.349 26.732 22.365 26.243L22.374 25.961L22.6361 26.066C23.0761 26.243 23.5501 26.418 24.1271 26.616L24.256 26.66ZM23.8191 23.964C23.3671 23.912 22.926 23.85 22.507 23.781L22.351 23.755L22.342 23.597C22.319 23.188 22.284 22.78 22.239 22.386L22.2111 22.139L22.458 22.167C22.852 22.211 23.26 22.245 23.669 22.268L23.827 22.277L23.853 22.433C23.923 22.852 23.985 23.293 24.038 23.745L24.0671 23.993L23.8191 23.964ZM20.7441 27.154L20.728 27.431L14.138 24.706L14.502 24.508C15.002 24.236 15.358 23.83 15.531 23.332L15.609 23.108L15.815 23.225C17.173 23.995 18.7121 24.587 20.4181 24.995L20.4461 25.0019L20.5561 25.068C20.5841 25.084 20.613 25.1 20.641 25.115L20.81 25.209L20.809 25.326C20.805 25.886 20.7841 26.484 20.7441 27.154ZM20.407 23.111C19.746 22.671 19.0951 22.173 18.4741 21.633L17.657 20.922L18.673 21.298C19.236 21.506 19.833 21.684 20.447 21.826L20.5781 21.8559L20.598 21.9889C20.647 22.3199 20.686 22.626 20.715 22.927L20.755 23.341L20.407 23.111ZM19.853 20.03C19.445 19.905 19.069 19.771 18.703 19.62C16.011 18.507 14.073 16.278 13.633 13.798L13.5841 13.519L13.863 13.568C14.325 13.65 14.784 13.7839 15.228 13.9679C17.142 14.7599 18.81 16.504 19.69 18.633C19.841 18.998 19.975 19.374 20.101 19.782L20.2111 20.139L19.853 20.03ZM14.109 22.103L14.12 22.184C14.164 22.5079 14.071 22.803 13.852 23.037C13.546 23.364 13.025 23.442 12.525 23.235C12.254 23.123 12.029 22.943 11.892 22.729C11.392 21.948 11.541 21.0699 11.754 20.4709C11.763 20.4449 11.769 20.419 11.775 20.394L11.861 20.027L12.118 20.289C12.687 20.916 13.335 21.51 14.045 22.053L14.109 22.103ZM8.57805 28.116C8.60105 28.078 8.61605 28.056 8.62705 28.031C8.89905 27.457 9.41404 26.73 10.319 26.53C10.568 26.475 10.854 26.5059 11.125 26.6189C11.625 26.8259 11.939 27.249 11.925 27.697C11.915 28.018 11.772 28.293 11.512 28.491L11.447 28.54L11.366 28.529C10.479 28.412 9.60105 28.375 8.75605 28.417L8.38105 28.436L8.57805 28.116ZM12.934 33.537L12.947 33.542C13.312 33.694 13.673 33.864 14.05 34.064L14.38 34.2389L14.05 34.414C13.671 34.615 13.31 34.7859 12.947 34.9369C10.82 35.8229 8.40805 35.88 6.49405 35.089C6.05005 34.905 5.63005 34.676 5.24505 34.408L5.01304 34.246L5.24505 34.084C7.30905 32.638 10.255 32.429 12.934 33.537ZM14.109 32.332L13.125 31.881L14.205 31.9549C15.026 32.0109 15.837 32.119 16.618 32.274L17.026 32.355L16.705 32.62C16.472 32.813 16.2281 33.003 15.96 33.201L15.852 33.281L15.738 33.21C15.203 32.878 14.655 32.582 14.109 32.332ZM13.449 28.9499L13.22 28.887L13.323 28.673C13.551 28.198 13.587 27.6589 13.425 27.1139L13.307 26.717L19.897 29.4419L19.713 29.65C19.268 30.153 18.861 30.591 18.468 30.991L18.386 31.074L18.201 31.021C18.17 31.012 18.138 31.0019 18.107 30.9939L17.983 30.964L17.958 30.948C16.462 30.032 14.954 29.3639 13.449 28.9499ZM17.4031 34.082C17.7131 33.835 18.025 33.571 18.331 33.297L18.449 33.1919L18.578 33.284C18.923 33.53 19.279 33.798 19.636 34.081L19.832 34.236L19.636 34.391C19.279 34.674 18.923 34.942 18.579 35.189L18.45 35.281L18.332 35.176C18.026 34.903 17.7131 34.64 17.4031 34.392L17.2091 34.237L17.4031 34.082ZM20.283 31.7569L20.023 31.646L20.216 31.44C20.551 31.081 20.908 30.682 21.339 30.185L21.432 30.077L23.4611 30.9159L23.251 31.125C22.777 31.597 22.351 32.01 21.949 32.386L21.85 32.479L21.728 32.419C21.174 32.151 20.715 31.9409 20.283 31.7569ZM20.286 36.7129C20.719 36.5289 21.177 36.317 21.729 36.048L21.851 35.988L21.95 36.081C22.352 36.456 22.779 36.869 23.254 37.341L23.465 37.55L21.437 38.391L21.344 38.284C20.909 37.783 20.551 37.385 20.219 37.03L20.026 36.824L20.286 36.7129ZM20.736 41.038L20.753 41.315C20.793 41.985 20.8161 42.583 20.8211 43.143L20.822 43.2599L20.6511 43.3559C20.6231 43.3709 20.596 43.386 20.568 43.402L20.43 43.475C18.707 43.889 17.202 44.469 15.829 45.25L15.623 45.367L15.545 45.143C15.371 44.646 15.014 44.2389 14.514 43.9679L14.149 43.77L20.736 41.038ZM20.42 45.3589L20.766 45.128L20.726 45.542C20.6971 45.844 20.66 46.15 20.611 46.48L20.5911 46.613L20.46 46.643C19.847 46.786 19.25 46.964 18.687 47.173L17.672 47.55L18.4881 46.8379C19.1081 46.2989 19.758 45.8009 20.42 45.3589ZM18.721 48.852C19.086 48.701 19.462 48.567 19.87 48.441L20.227 48.331L20.117 48.688C19.992 49.096 19.858 49.4719 19.707 49.8379C18.601 52.5239 16.37 54.4669 13.885 54.908L13.606 54.957L13.655 54.6789C14.095 52.1939 16.036 49.961 18.721 48.852ZM26.0931 34.477L25.48 34.232L26.005 34.022C26.034 34.01 26.0641 33.997 26.0931 33.986C26.8321 33.699 27.968 33.348 29.186 33.302L29.229 33.3L31.4721 34.227L29.2311 35.157L29.1881 35.156C27.9701 35.113 26.8331 34.763 26.0931 34.477ZM30.06 31.2909L30.031 31.259C29.202 30.367 28.645 29.316 28.324 28.591C28.312 28.563 28.3 28.534 28.288 28.506L28.062 27.983L28.671 28.2439C29.396 28.5639 30.4481 29.119 31.3411 29.948L31.3731 29.977L32.303 32.2179L30.06 31.2909ZM33.404 23.7129C32.965 24.5919 32.663 25.277 32.423 25.934L32.249 26.41L31.6401 24.943L31.7351 24.849C32.2821 24.308 32.699 23.888 33.085 23.487L33.979 22.56L33.404 23.7129ZM36.267 16.531L36.186 16.94L35.921 16.6189C35.728 16.3849 35.538 16.141 35.34 15.874L35.26 15.766L35.331 15.652C35.664 15.117 35.96 14.5689 36.21 14.0229L36.661 13.038L36.587 14.118C36.53 14.94 36.423 15.751 36.267 16.531ZM36.135 2.89696C37.384 4.35896 38.189 6.09196 38.462 7.90996L38.469 7.95794L38.4531 8.00298C38.3551 8.29098 38.28 8.55695 38.226 8.81695L38.0241 9.76696L37.838 8.81396C37.445 6.80496 36.763 4.88896 35.809 3.11996L34.931 1.48998L36.135 2.89696ZM32.456 2.89898L33.657 1.48998L32.781 3.12096C31.829 4.89196 31.1491 6.80898 30.7591 8.81798L30.574 9.77294L30.372 8.82195C30.317 8.56295 30.242 8.29699 30.144 8.00799L30.128 7.96197L30.135 7.91399C30.406 6.09699 31.208 4.36198 32.456 2.89898ZM28.088 8.54796C28.112 8.53596 28.135 8.52199 28.157 8.50799L28.477 8.30999L28.4741 8.67595C28.4321 9.52096 28.471 10.399 28.589 11.285L28.6 11.366L28.551 11.431C28.353 11.691 28.079 11.834 27.758 11.845C27.622 11.85 27.487 11.825 27.359 11.772C26.819 11.549 26.46 10.833 26.59 10.241C26.788 9.33596 27.514 8.82096 28.088 8.54796ZM23.398 15.457C23.895 15.283 24.301 14.926 24.572 14.427L24.77 14.0619L27.503 20.6479L27.226 20.665C26.555 20.705 25.957 20.728 25.398 20.733L25.281 20.7339L25.185 20.563C25.17 20.535 25.155 20.507 25.139 20.48L25.066 20.342C24.652 18.618 24.0721 17.113 23.2911 15.741L23.174 15.535L23.398 15.457ZM21.702 18.401C22.243 19.022 22.741 19.6719 23.182 20.3329L23.413 20.6789L22.999 20.639C22.7 20.611 22.384 20.572 22.061 20.524L21.928 20.504L21.8971 20.373C21.7541 19.759 21.576 19.163 21.367 18.6L20.99 17.585L21.702 18.401ZM20.456 11.703C20.481 11.697 20.5061 11.692 20.532 11.682C21.3811 11.379 22.176 11.4259 22.79 11.8169C23.124 12.0299 23.367 12.45 23.407 12.887C23.4401 13.245 23.331 13.561 23.101 13.777C22.8671 13.997 22.5721 14.0899 22.2481 14.0459L22.167 14.035L22.117 13.97C21.573 13.261 20.9781 12.613 20.35 12.0459L20.0721 11.795L20.456 11.703ZM13.448 10.7859C15.37 10.9369 17.156 11.59 18.638 12.685L18.677 12.7129L18.698 12.756C18.8321 13.029 18.9681 13.27 19.1131 13.493L19.642 14.307L18.8361 13.7649C17.1471 12.6279 15.29 11.746 13.375 11.173L11.601 10.642L13.448 10.7859ZM10.8481 13.389L10.701 11.543L11.235 13.316C11.814 15.241 12.6891 17.078 13.8341 18.774L14.377 19.579L13.563 19.051C13.34 18.907 13.099 18.771 12.826 18.637L12.783 18.616L12.754 18.577C11.659 17.1 11.001 15.306 10.8481 13.389ZM2.98404 32.406C4.44604 31.157 6.18005 30.352 7.99705 30.078L8.04505 30.071L8.09105 30.087C8.37905 30.185 8.64505 30.26 8.90505 30.314L9.85605 30.5149L8.90204 30.701C6.89304 31.093 4.97704 31.776 3.20804 32.729L1.57705 33.608L2.98404 32.406ZM8.09504 38.3979L8.04905 38.414L8.00105 38.407C7.22505 38.291 6.46205 38.08 5.73305 37.779C4.75205 37.373 3.82804 36.804 2.98504 36.086L1.57605 34.8849L3.20704 35.762C3.78804 36.075 4.39505 36.362 5.00905 36.616C6.25505 37.131 7.56505 37.524 8.90405 37.784L9.85904 37.969L8.90805 38.171C8.65005 38.225 8.38304 38.2989 8.09504 38.3979ZM11.521 41.631C11.184 41.911 10.716 42.037 10.329 41.952C10.21 41.926 10.094 41.889 9.98205 41.8429C9.42405 41.6119 8.95805 41.131 8.63505 40.453C8.62304 40.427 8.60904 40.405 8.59504 40.383L8.39705 40.063L8.76404 40.0669C9.60904 40.1089 10.487 40.07 11.374 39.952L11.455 39.941L11.52 39.99C11.78 40.188 11.923 40.462 11.934 40.783C11.944 41.1 11.797 41.401 11.521 41.631ZM13.127 36.598L14.111 36.146C14.657 35.895 15.204 35.5989 15.739 35.2649L15.853 35.194L15.961 35.274C16.231 35.474 16.475 35.664 16.706 35.855L17.027 36.12L16.619 36.202C15.84 36.358 15.028 36.466 14.207 36.524L13.127 36.598ZM13.433 41.3639C13.594 40.8189 13.558 40.28 13.329 39.805L13.226 39.591L13.455 39.5279C14.976 39.1079 16.4501 38.453 17.9611 37.525L18.0151 37.5019L18.11 37.479C18.142 37.47 18.173 37.461 18.204 37.452L18.389 37.399L18.471 37.482C18.864 37.881 19.271 38.319 19.717 38.821L19.902 39.029L13.315 41.762L13.433 41.3639ZM12.134 48.19L11.883 48.4679L11.795 48.104C11.785 48.06 11.779 48.035 11.77 48.008C11.556 47.409 11.406 46.532 11.905 45.75C12.231 45.239 12.991 44.986 13.531 45.209C13.659 45.262 13.771 45.339 13.865 45.439C14.085 45.674 14.178 45.969 14.134 46.293L14.123 46.374L14.058 46.4239C13.349 46.9689 12.702 47.563 12.134 48.19ZM13.852 49.704C12.709 51.402 11.837 53.239 11.26 55.165L10.728 56.938L10.873 55.092C11.023 53.175 11.68 51.38 12.772 49.902L12.801 49.863L12.844 49.842C13.117 49.708 13.358 49.572 13.581 49.427L14.395 48.897L13.852 49.704ZM19.137 54.979C18.992 55.202 18.8571 55.443 18.7231 55.716L18.702 55.759L18.663 55.788C17.186 56.881 15.392 57.54 13.475 57.693L11.629 57.84L13.402 57.306C15.327 56.727 17.163 55.852 18.86 54.707L19.665 54.163L19.137 54.979ZM23.198 48.134C22.758 48.795 22.2611 49.4449 21.7201 50.0669L21.0091 50.8849L21.385 49.8689C21.593 49.3069 21.771 48.71 21.913 48.095L21.943 47.964L22.076 47.944C22.405 47.895 22.712 47.857 23.014 47.827L23.428 47.787L23.198 48.134ZM25.859 40.961C25.868 40.402 25.87 39.811 25.865 39.044L25.864 38.9109L27.331 38.302L27.118 38.762C26.824 39.397 26.5551 40.095 26.2441 41.027L25.837 42.249L25.859 40.961ZM22.8171 56.649C22.0361 57.149 21.158 57 20.559 56.787C20.532 56.777 20.506 56.772 20.48 56.766L20.114 56.68L20.3771 56.423C21.0041 55.855 21.598 55.207 22.141 54.496L22.191 54.431L22.2721 54.42C22.5971 54.376 22.89 54.468 23.126 54.689C23.357 54.905 23.4661 55.221 23.4331 55.579C23.392 56.016 23.1511 56.436 22.8171 56.649ZM24.794 54.4029L24.596 54.039C24.325 53.541 23.921 53.1859 23.42 53.0099L23.1961 52.932L23.3131 52.7259C24.0921 51.3529 24.671 49.848 25.083 48.123L25.09 48.094L25.156 47.9839C25.172 47.9569 25.187 47.928 25.202 47.9L25.297 47.73L25.4141 47.7309C25.9711 47.735 26.569 47.757 27.242 47.796L27.519 47.8119L24.794 54.4029ZM28.154 46.277L28.012 46.267C27.352 46.221 26.8181 46.192 26.3301 46.176L26.048 46.1659L26.1531 45.904C26.3291 45.466 26.5041 44.993 26.7031 44.413L26.747 44.284L26.883 44.279C27.433 44.26 28.0261 44.25 28.6961 44.248L28.993 44.2469L28.154 46.277ZM29.6401 42.683L29.507 42.682C28.986 42.679 28.297 42.677 27.59 42.69L26.3021 42.714L27.523 42.305C28.455 41.993 29.1541 41.7229 29.7871 41.4289L30.247 41.215L29.6401 42.683ZM31.378 38.48L31.346 38.5099C30.453 39.3399 29.402 39.896 28.678 40.217C28.65 40.23 28.6201 40.242 28.5911 40.254L28.0691 40.48L28.295 39.956C28.307 39.927 28.319 39.899 28.331 39.871C28.651 39.146 29.2061 38.094 30.0351 37.201L30.064 37.169L32.305 36.2389L31.378 38.48ZM34.312 31.384L33.382 29.143L33.3841 29.1C33.4281 27.882 33.778 26.745 34.064 26.006C34.075 25.977 34.087 25.948 34.099 25.92L34.309 25.3899L34.52 25.9209C34.532 25.9489 34.543 25.978 34.555 26.006C34.841 26.745 35.193 27.881 35.239 29.099L35.24 29.142L34.312 31.384ZM36.37 26.4079L36.195 25.932C35.955 25.277 35.651 24.5919 35.211 23.7129L34.635 22.561L35.53 23.487C35.918 23.888 36.335 24.308 36.881 24.847L36.976 24.94L36.37 26.4079ZM37.625 23.374L37.416 23.164C36.945 22.692 36.533 22.266 36.154 21.862L36.061 21.763L36.12 21.641C36.388 21.09 36.599 20.631 36.783 20.197L36.893 19.9369L37.099 20.13C37.455 20.463 37.854 20.82 38.354 21.254L38.462 21.347L37.625 23.374ZM39.099 19.809L38.891 19.625C38.39 19.181 37.952 18.774 37.551 18.38L37.4681 18.298L37.521 18.111C37.53 18.08 37.539 18.049 37.548 18.018L37.579 17.894L37.594 17.8689C38.52 16.3569 39.174 14.883 39.592 13.361L39.655 13.1319L39.8691 13.235C40.3491 13.465 40.885 13.498 41.428 13.337L41.826 13.219L39.099 19.809ZM65.6721 36.059C64.2101 37.309 62.476 38.113 60.659 38.387L60.611 38.394L60.566 38.378C60.278 38.28 60.011 38.206 59.752 38.15L58.803 37.948L59.755 37.762C61.763 37.37 63.679 36.6869 65.449 35.7339L67.079 34.8559L65.6721 36.059ZM36.163 46.823L36.103 46.701L36.196 46.6009C36.571 46.1999 36.983 45.773 37.456 45.297L37.665 45.086L38.506 47.1139L38.3991 47.2079C37.8991 47.6429 37.501 47.9999 37.145 48.3329L36.939 48.526L36.8281 48.266C36.6441 47.834 36.432 47.375 36.163 46.823ZM35.396 50.102L35.291 50.22C35.0191 50.525 34.755 50.838 34.507 51.149L34.353 51.3429L34.198 51.149C33.949 50.837 33.685 50.5249 33.413 50.2209L33.307 50.103L33.3991 49.974C33.6461 49.628 33.914 49.2719 34.196 48.9159L34.351 48.72L34.506 48.9159C34.788 49.2719 35.056 49.627 35.3041 49.973L35.396 50.102ZM44.519 26.615C45.098 26.415 45.5711 26.24 46.0091 26.063L46.271 25.957L46.281 26.2389C46.298 26.7279 46.327 27.2619 46.374 27.9209L46.3841 28.063L44.3561 28.904L44.357 28.607C44.358 27.938 44.368 27.344 44.3861 26.794L44.391 26.6579L44.519 26.615ZM44.824 23.9629L44.576 23.992L44.605 23.7439C44.657 23.2929 44.719 22.851 44.788 22.432L44.814 22.276L44.972 22.267C45.3801 22.244 45.787 22.209 46.183 22.164L46.43 22.136L46.402 22.383C46.358 22.779 46.323 23.187 46.301 23.594L46.292 23.7519L46.1361 23.7779C45.7171 23.8479 45.276 23.9099 44.824 23.9629ZM55.709 34.923C55.344 34.771 54.9831 34.601 54.6061 34.401L54.2761 34.2259L54.6061 34.051C54.9841 33.851 55.344 33.6799 55.709 33.5279C57.836 32.6419 60.2481 32.585 62.1621 33.376C62.6061 33.56 63.0261 33.789 63.4101 34.057L63.642 34.219L63.4101 34.381C61.3471 35.827 58.4011 36.036 55.709 34.923ZM57.2891 39.936C58.1751 40.053 59.0531 40.09 59.8991 40.048L60.266 40.044L60.068 40.3639C60.054 40.3859 60.0401 40.408 60.028 40.434C59.7561 41.008 59.241 41.735 58.336 41.935C58.087 41.99 57.801 41.9579 57.53 41.8459C57.03 41.6389 56.716 41.216 56.73 40.768C56.74 40.447 56.883 40.173 57.143 39.974L57.208 39.925L57.2891 39.936ZM54.547 36.133L55.532 36.584L54.451 36.5099C53.629 36.4539 52.818 36.346 52.038 36.191L51.63 36.11L51.951 35.845C52.184 35.653 52.427 35.463 52.696 35.263L52.8041 35.183L52.918 35.254C53.453 35.588 54.001 35.883 54.547 36.133ZM55.2071 39.5149L55.436 39.578L55.333 39.792C55.105 40.267 55.0691 40.8059 55.2311 41.3509L55.349 41.749L48.7591 39.024L48.943 38.816C49.388 38.313 49.796 37.875 50.187 37.475L50.269 37.391L50.454 37.444C50.485 37.453 50.517 37.4619 50.548 37.4709L50.673 37.5019L50.698 37.517C52.194 38.433 53.702 39.1009 55.2071 39.5149ZM51.253 34.383C50.942 34.631 50.63 34.895 50.325 35.168L50.2071 35.274L50.0781 35.182C49.7331 34.936 49.377 34.6679 49.02 34.3849L48.824 34.23L49.02 34.0749C49.376 33.7929 49.732 33.524 50.077 33.277L50.206 33.185L50.324 33.29C50.63 33.563 50.943 33.827 51.253 34.074L51.447 34.228L51.253 34.383ZM48.3731 36.7079L48.633 36.818L48.4401 37.025C48.1061 37.383 47.749 37.782 47.316 38.28L47.223 38.388L45.194 37.5489L45.404 37.34C45.88 36.866 46.306 36.454 46.706 36.078L46.805 35.985L46.9271 36.045C47.4771 36.312 47.9361 36.5219 48.3731 36.7079ZM48.37 31.7519C47.935 31.9379 47.4761 32.149 46.9271 32.417L46.805 32.477L46.706 32.384C46.3 32.005 45.874 31.593 45.402 31.124L45.191 30.915L47.219 30.074L47.312 30.181C47.745 30.678 48.102 31.077 48.437 31.435L48.63 31.641L48.37 31.7519ZM42.42 41.029C42.109 40.098 41.838 39.3999 41.544 38.7649L41.3301 38.305L42.798 38.912L42.797 39.045C42.793 39.814 42.795 40.405 42.805 40.962L42.8281 42.25L42.42 41.029ZM42.363 42.715L41.076 42.693C40.515 42.684 39.924 42.6819 39.158 42.6869L39.025 42.688L38.416 41.2209L38.876 41.434C39.507 41.726 40.199 41.994 41.141 42.308L42.363 42.715ZM44.8561 35.136L46.008 34.56L45.083 35.4549C44.683 35.8419 44.263 36.259 43.723 36.807L43.63 36.902L42.1621 36.295L42.6381 36.12C43.293 35.879 43.9771 35.576 44.8561 35.136ZM42.635 32.347L42.159 32.173L43.626 31.564L43.7201 31.6579C44.258 32.202 44.6781 32.619 45.0821 33.008L46.0091 33.902L44.8561 33.327C43.9701 32.886 43.289 32.586 42.635 32.347ZM47.92 27.427L47.903 27.15C47.863 26.48 47.841 25.882 47.835 25.322L47.834 25.2049L48.005 25.1089C48.033 25.0939 48.061 25.079 48.088 25.063L48.172 25.012L48.226 24.99C49.95 24.576 51.455 23.995 52.827 23.215L53.033 23.098L53.111 23.322C53.285 23.819 53.642 24.2259 54.142 24.4969L54.507 24.694L47.92 27.427ZM48.236 23.1059L47.89 23.337L47.93 22.923C47.959 22.621 47.996 22.314 48.045 21.985L48.0651 21.852L48.196 21.821C48.8111 21.678 49.407 21.4989 49.969 21.2909L50.984 20.914L50.168 21.626C49.5471 22.167 48.897 22.6649 48.236 23.1059ZM49.935 19.613C49.57 19.764 49.194 19.898 48.786 20.024L48.4291 20.134L48.5391 19.777C48.6641 19.369 48.798 18.993 48.949 18.628C50.055 15.942 52.286 13.999 54.771 13.558L55.0501 13.509L55.001 13.788C54.561 16.272 52.62 18.504 49.935 19.613ZM42.562 33.988L43.178 34.2339L42.648 34.4449C42.62 34.4569 42.5911 34.469 42.5631 34.48C41.8241 34.766 40.688 35.117 39.4701 35.163L39.4271 35.165L37.185 34.238L39.426 33.308L39.469 33.309C40.686 33.353 41.823 33.702 42.562 33.988ZM38.596 37.1739L38.625 37.206C39.4551 38.099 40.0111 39.15 40.3321 39.875C40.3451 39.904 40.3571 39.9329 40.3691 39.9629L40.592 40.482L39.9851 40.222C39.2601 39.902 38.2081 39.347 37.3151 38.518L37.284 38.4889L36.354 36.248L38.596 37.1739ZM36.6381 54.345L36.713 55.425L36.2611 54.441C36.0101 53.895 35.714 53.347 35.38 52.813L35.309 52.699L35.389 52.591C35.587 52.323 35.7771 52.0799 35.9701 51.8459L36.2351 51.525L36.3171 51.933C36.472 52.712 36.5801 53.524 36.6381 54.345ZM34.1791 54.5019L34.354 54.172L34.529 54.5019C34.729 54.8789 34.9001 55.24 35.0521 55.605C36.1701 58.287 35.9671 61.238 34.5221 63.307L34.3601 63.539L34.198 63.307C32.75 61.239 32.543 58.2879 33.657 55.6059C33.809 55.2409 33.979 54.8799 34.1791 54.5019ZM37.64 50.592L37.594 50.443C37.586 50.412 37.577 50.382 37.568 50.352L37.514 50.163L37.597 50.081C37.996 49.688 38.434 49.281 38.936 48.835L39.144 48.651L41.877 55.238L41.479 55.12C40.934 54.959 40.394 54.995 39.92 55.224L39.706 55.327L39.643 55.098C39.223 53.576 38.5681 52.102 37.64 50.592ZM40.516 46.281L39.6751 44.254H39.972C40.642 44.255 41.2351 44.2649 41.7851 44.283L41.921 44.288L41.965 44.4159C42.166 44.9969 42.341 45.47 42.517 45.906L42.6231 46.168L42.3411 46.178C41.8551 46.195 41.321 46.225 40.659 46.271L40.516 46.281ZM44.4 41.805L44.395 41.669C44.376 41.118 44.366 40.5249 44.364 39.8559L44.363 39.559L46.392 40.3979L46.382 40.54C46.336 41.197 46.307 41.732 46.291 42.222L46.282 42.504L46.02 42.399C45.585 42.224 45.111 42.049 44.529 41.849L44.4 41.805ZM44.836 44.501C45.288 44.553 45.729 44.615 46.148 44.685L46.3041 44.711L46.3131 44.8689C46.3361 45.278 46.3711 45.6859 46.416 46.0799L46.444 46.327L46.197 46.2989C45.802 46.2549 45.3951 46.221 44.9851 46.198L44.827 46.189L44.801 46.033C44.731 45.615 44.669 45.174 44.616 44.722L44.587 44.474L44.836 44.501ZM47.9121 41.311L47.928 41.034L54.518 43.759L54.154 43.957C53.654 44.229 53.298 44.636 53.125 45.133L53.047 45.357L52.8411 45.24C51.4831 44.47 49.944 43.878 48.238 43.47L48.209 43.4629L48.1 43.397C48.071 43.381 48.043 43.365 48.014 43.35L47.846 43.256L47.847 43.139C47.8511 42.579 47.8721 41.981 47.9121 41.311ZM48.249 45.354C48.911 45.795 49.562 46.292 50.182 46.832L50.999 47.542L49.984 47.1659C49.421 46.9579 48.824 46.78 48.21 46.638L48.079 46.608L48.059 46.475C48.01 46.145 47.9711 45.839 47.9421 45.537L47.902 45.123L48.249 45.354ZM48.8021 48.435C49.2101 48.56 49.586 48.694 49.952 48.845L49.965 48.85C52.644 49.958 54.5821 52.1859 55.0221 54.6659L55.071 54.9449L54.792 54.896C54.33 54.815 53.8711 54.6799 53.4271 54.4969C51.5131 53.7049 49.8451 51.961 48.9661 49.832C48.8161 49.469 48.681 49.093 48.555 48.683L48.445 48.326L48.8021 48.435ZM54.547 46.362L54.536 46.281C54.492 45.957 54.585 45.662 54.8041 45.427C55.1101 45.1 55.631 45.022 56.131 45.229C56.402 45.341 56.627 45.521 56.764 45.735C57.263 46.516 57.115 47.394 56.902 47.993C56.893 48.019 56.887 48.0449 56.877 48.0879L56.79 48.453L56.538 48.175C55.97 47.548 55.322 46.9539 54.612 46.4109L54.547 46.362ZM60.561 30.0669L60.607 30.051L60.655 30.058C62.477 30.33 64.203 31.129 65.6701 32.38L67.079 33.581L65.4481 32.704C63.6881 31.757 61.749 31.07 59.751 30.682L58.798 30.4969L59.7481 30.294C60.007 30.24 60.274 30.1649 60.561 30.0669ZM57.135 26.834C57.472 26.553 57.94 26.427 58.327 26.513C59.038 26.669 59.634 27.198 60.021 28.012C60.033 28.037 60.046 28.0579 60.06 28.0799L60.266 28.4159L59.892 28.3979C59.047 28.3559 58.169 28.395 57.282 28.513L57.201 28.524L57.1361 28.475C56.8761 28.277 56.7331 28.003 56.722 27.682C56.7121 27.365 56.858 27.064 57.135 26.834ZM55.529 31.867L54.545 32.319C54 32.57 53.452 32.8659 52.917 33.1999L52.803 33.271L52.695 33.191C52.432 32.997 52.182 32.802 51.95 32.61L51.628 32.345L52.036 32.263C52.815 32.107 53.627 31.998 54.448 31.941L55.529 31.867ZM55.223 27.1009C55.062 27.6459 55.098 28.186 55.327 28.66L55.43 28.874L55.202 28.9369C53.68 29.3569 52.206 30.012 50.696 30.94L50.547 30.986C50.516 30.994 50.486 31.003 50.4551 31.012L50.267 31.065L50.185 30.982C49.793 30.583 49.385 30.146 48.939 29.643L48.755 29.435L55.342 26.702L55.223 27.1009ZM56.778 20.014L56.865 20.38C56.871 20.406 56.8771 20.431 56.8861 20.457C57.1001 21.056 57.25 21.933 56.751 22.715C56.425 23.226 55.6651 23.479 55.125 23.256C54.9971 23.203 54.8851 23.126 54.791 23.026C54.571 22.792 54.4781 22.496 54.5221 22.173L54.533 22.092L54.598 22.042C55.307 21.498 55.9551 20.903 56.5221 20.275L56.778 20.014ZM54.8041 18.761C55.9471 17.063 56.819 15.226 57.396 13.3L57.9271 11.527L57.782 13.3719C57.632 15.2889 56.975 17.0839 55.883 18.5619L55.854 18.6009L55.811 18.6219C55.537 18.7559 55.297 18.892 55.074 19.037L54.2591 19.5669L54.8041 18.761ZM49.518 13.486C49.662 13.263 49.798 13.022 49.932 12.749L49.9531 12.706L49.992 12.677C51.469 11.583 53.263 10.925 55.18 10.772L57.0261 10.625L55.253 11.1579C53.328 11.7369 51.492 12.6119 49.795 13.7569L48.99 14.3L49.518 13.486ZM45.4571 20.331C45.897 19.67 46.395 19.0189 46.935 18.3979L47.646 17.581L47.27 18.597C47.062 19.16 46.884 19.756 46.742 20.37L46.712 20.501L46.579 20.521C46.251 20.57 45.944 20.608 45.642 20.638L45.227 20.678L45.4571 20.331ZM42.797 27.504C42.788 28.06 42.786 28.652 42.791 29.4209L42.792 29.5539L41.325 30.163L41.538 29.703C41.832 29.068 42.1011 28.37 42.4121 27.438L42.819 26.216L42.797 27.504ZM45.839 11.816C46.62 11.316 47.4981 11.465 48.097 11.678C48.1241 11.688 48.15 11.6929 48.176 11.6999L48.557 11.7909L48.279 12.043C47.652 12.611 47.059 13.259 46.515 13.969L46.465 14.034L46.3841 14.045C46.1911 14.071 46.009 14.0499 45.844 13.9809C45.731 13.9339 45.626 13.866 45.53 13.776C45.299 13.56 45.19 13.244 45.223 12.886C45.263 12.449 45.505 12.03 45.839 11.816ZM43.862 14.0619L44.06 14.426C44.331 14.924 44.733 15.2789 45.236 15.4549L45.46 15.5329L45.3431 15.7389C44.5641 17.1119 43.985 18.617 43.573 20.342L43.566 20.371L43.5 20.48C43.4841 20.508 43.4691 20.536 43.4531 20.565L43.359 20.735L43.242 20.7339C42.68 20.7289 42.0821 20.708 41.4141 20.669L41.137 20.6529L43.862 14.0619ZM40.502 22.189L40.644 22.199C41.305 22.245 41.839 22.274 42.326 22.29L42.6081 22.3L42.503 22.5619C42.327 22.9999 42.1521 23.473 41.9531 24.053L41.909 24.182L41.773 24.1869C41.22 24.2059 40.627 24.2159 39.96 24.2179L39.663 24.219L40.502 22.189ZM39.016 25.782L39.1491 25.7829C39.9171 25.7869 40.508 25.784 41.066 25.775L42.353 25.7519L41.132 26.1609C40.199 26.4729 39.501 26.743 38.868 27.038L38.408 27.2519L39.016 25.782ZM37.278 29.985L37.31 29.956C38.203 29.126 39.254 28.57 39.978 28.249C40.006 28.237 40.0341 28.2249 40.0631 28.2129L40.587 27.986L40.361 28.5099C40.349 28.5389 40.337 28.5669 40.325 28.5959C40.005 29.3209 39.4501 30.373 38.6211 31.266L38.592 31.297L36.351 32.227L37.278 29.985ZM34.3431 37.081L35.273 39.322L35.2721 39.365C35.2281 40.583 34.878 41.72 34.592 42.459C34.581 42.488 34.569 42.516 34.557 42.545L34.347 43.0749L34.137 42.546C34.125 42.517 34.113 42.488 34.102 42.459C33.815 41.721 33.4641 40.585 33.418 39.366L33.416 39.323L34.3431 37.081ZM32.2851 42.058L32.46 42.534C32.701 43.19 33.0041 43.874 33.444 44.754L34.02 45.906L33.125 44.98C32.633 44.471 32.1451 43.986 31.7741 43.62L31.6791 43.527L32.2851 42.058ZM31.031 45.091L31.24 45.301C31.713 45.776 32.126 46.202 32.501 46.603L32.594 46.702L32.534 46.824C32.266 47.375 32.0551 47.834 31.8711 48.268L31.7611 48.5279L31.5541 48.335C31.1971 48.002 30.798 47.645 30.299 47.212L30.191 47.1189L31.031 45.091ZM26.8321 55.246L29.557 48.656L29.7651 48.84C30.2691 49.287 30.708 49.694 31.105 50.085L31.1881 50.167L31.135 50.354C31.126 50.385 31.117 50.415 31.109 50.446L31.0781 50.5699L31.0631 50.595C30.1371 52.107 29.4831 53.581 29.0651 55.103L29.0021 55.332L28.788 55.229C28.308 55 27.772 54.9659 27.229 55.1269L26.8321 55.246ZM28.217 59.965C28.194 59.951 28.172 59.937 28.146 59.925C27.572 59.653 26.845 59.138 26.645 58.233C26.559 57.846 26.685 57.378 26.965 57.04C27.195 56.764 27.495 56.6169 27.811 56.6269C28.133 56.6369 28.406 56.779 28.605 57.04L28.654 57.105L28.644 57.186C28.527 58.073 28.49 58.951 28.532 59.796L28.5371 60.163L28.217 59.965ZM35.252 44.7519C35.69 43.8729 35.993 43.188 36.2331 42.532L36.407 42.056L37.016 43.5229L36.921 43.617C36.375 44.157 35.959 44.577 35.571 44.979L34.6771 45.906L35.252 44.7519ZM32.389 51.935L32.4701 51.527L32.7351 51.848C32.9281 52.081 33.118 52.3249 33.316 52.5929L33.396 52.701L33.325 52.815C32.992 53.35 32.696 53.899 32.446 54.444L31.995 55.4289L32.069 54.348C32.126 53.525 32.233 52.713 32.389 51.935ZM32.521 65.569C31.272 64.107 30.467 62.374 30.193 60.556L30.186 60.508L30.201 60.462C30.299 60.174 30.3741 59.9079 30.4291 59.6479L30.63 58.698L30.816 59.651C31.208 61.66 31.8911 63.576 32.8451 65.345L33.723 66.975L32.521 65.569ZM36.2 65.566L34.999 66.975L35.875 65.344C36.827 63.573 37.5071 61.656 37.8971 59.647L38.0821 58.693L38.284 59.643C38.339 59.903 38.4141 60.169 38.5131 60.457L38.529 60.5019L38.5221 60.55C38.2501 62.368 37.447 64.103 36.2 65.566ZM40.568 59.917C40.543 59.929 40.521 59.943 40.482 59.967L40.163 60.163L40.181 59.789C40.223 58.944 40.184 58.066 40.066 57.18L40.055 57.099L40.104 57.034C40.302 56.774 40.576 56.631 40.898 56.62C41.034 56.616 41.169 56.64 41.297 56.693C41.837 56.916 42.197 57.632 42.066 58.224C41.868 59.129 41.142 59.644 40.568 59.917ZM45.258 53.008C44.761 53.182 44.354 53.539 44.084 54.039L43.8861 54.404L41.153 47.8169L41.43 47.8C42.1 47.76 42.698 47.737 43.258 47.732L43.375 47.7309L43.469 47.899C43.485 47.928 43.5 47.956 43.517 47.985L43.568 48.069L43.59 48.123C44.004 49.847 44.585 51.352 45.365 52.724L45.482 52.93L45.258 53.008ZM46.954 50.064C46.413 49.443 45.9151 48.793 45.474 48.133L45.243 47.787L45.657 47.826C45.956 47.854 46.2621 47.892 46.5951 47.941L46.728 47.961L46.7591 48.092C46.9021 48.706 47.0801 49.302 47.2891 49.865L47.666 50.88L46.954 50.064ZM48.201 56.761C48.175 56.767 48.1501 56.773 48.1231 56.782C47.4151 57.034 46.7461 57.046 46.1881 56.815C46.0761 56.769 45.968 56.712 45.865 56.647C45.531 56.434 45.2881 56.014 45.2481 55.578C45.215 55.22 45.3241 54.9039 45.5541 54.6869C45.7891 54.4669 46.084 54.374 46.407 54.418L46.488 54.4289L46.538 54.4939C47.082 55.2039 47.6771 55.851 48.3041 56.418L48.566 56.6739L48.201 56.761ZM55.208 57.68C54.105 57.593 53.048 57.344 52.0671 56.938C51.3381 56.637 50.649 56.248 50.018 55.781L49.979 55.7519L49.958 55.709C49.823 55.435 49.688 55.194 49.543 54.973L49.012 54.158L49.819 54.701C50.9501 55.462 52.1551 56.11 53.4011 56.625C54.015 56.879 54.648 57.104 55.28 57.293L57.0541 57.824L55.208 57.68ZM57.421 55.149C56.842 53.224 55.967 51.388 54.822 49.691L54.278 48.8849L55.094 49.414C55.317 49.558 55.558 49.694 55.831 49.828L55.874 49.849L55.903 49.887C56.996 51.364 57.655 53.1579 57.808 55.0749L57.9551 56.921L57.421 55.149Z" fill="#E8D6A0"/>
</svg>
