<svg width="107" height="107" viewBox="0 0 107 107" fill="none" xmlns="http://www.w3.org/2000/svg">
<path d="M91.2936 80.2848C91.1856 79.9938 91.0576 79.6858 90.8886 79.3168L90.6446 78.7818L90.4876 76.2488L90.6966 75.8888C90.7416 75.8118 90.7776 75.7347 90.8056 75.6537C91.3116 74.2297 91.3896 72.5597 91.0136 71.1877L90.8476 70.5818L92.1406 67.4538L92.6866 67.1418C93.9226 66.4358 95.0466 65.1997 95.6936 63.8337C95.7306 63.7557 95.7596 63.6758 95.7826 63.5898L95.8886 63.1877L97.7886 61.5058L98.3396 61.2988C98.7196 61.1568 99.0276 61.0297 99.3106 60.8987C102.096 59.6147 107.087 56.5058 106.888 52.9488C106.706 49.6958 101.922 46.8088 99.3016 45.6078C98.9826 45.4618 98.6576 45.3317 98.3306 45.2087L97.7796 45.0027L95.8766 43.3238L95.7706 42.9208C95.7476 42.8348 95.7186 42.7558 95.6816 42.6778C95.0326 41.3128 93.9076 40.0777 92.6706 39.3727L92.1246 39.0618L90.8276 35.9358L90.9926 35.3298C91.3676 33.9568 91.2876 32.2878 90.7796 30.8638C90.7506 30.7828 90.7146 30.7068 90.6696 30.6288L90.4606 30.2698L90.6136 27.7358L90.8576 27.1998C91.0246 26.8328 91.1526 26.5258 91.2616 26.2308C92.9216 21.7268 93.7916 14.1538 87.2306 14.0928C84.9386 14.0718 82.5836 14.6307 80.4436 15.4247C80.1506 15.5337 79.8426 15.6618 79.4746 15.8298L78.9396 16.0738L76.4066 16.2308L76.0466 16.0218C75.9756 15.9798 75.8976 15.9438 75.8116 15.9128C74.3876 15.4068 72.7176 15.3288 71.3456 15.7048L70.7396 15.8708L69.1536 15.2148L67.5676 14.5588L67.2566 14.0138C66.5506 12.7788 65.3146 11.6538 63.9486 11.0068C63.8656 10.9678 63.7846 10.9388 63.7056 10.9178L63.3036 10.8118L61.6216 8.91173L61.4156 8.36077C61.2736 7.98177 61.1466 7.67376 61.0156 7.38976C60.0616 5.31576 58.7896 3.25676 57.1516 1.65276C52.4636 -2.93824 47.7306 3.03773 45.7246 7.39873C45.5936 7.68373 45.4666 7.99274 45.3266 8.36974L45.1206 8.92174L43.4396 10.8238L43.0386 10.9297C42.9526 10.9527 42.8726 10.9818 42.7956 11.0188C41.4306 11.6678 40.1956 12.7938 39.4906 14.0298L39.1796 14.5757L36.0536 15.8727L35.4476 15.7078C34.0746 15.3328 32.4046 15.4128 30.9816 15.9208C30.8996 15.9498 30.8236 15.9858 30.7466 16.0298L30.3866 16.2397L27.8536 16.0848L27.3186 15.8407C26.9996 15.6967 26.6786 15.5588 26.3496 15.4368C23.6466 14.4368 18.2206 13.1007 15.7946 15.2757C13.1416 17.6537 14.4786 23.3788 15.5436 26.2558C15.6516 26.5468 15.7806 26.8547 15.9486 27.2237L16.1926 27.7588L16.3496 30.2917L16.1406 30.6518C16.0956 30.7288 16.0596 30.8058 16.0316 30.8868C15.5256 32.3108 15.4476 33.9798 15.8246 35.3528L15.9906 35.9587L14.6966 39.0868L14.1506 39.3987C12.9146 40.1047 11.7906 41.3418 11.1436 42.7068C11.1066 42.7848 11.0776 42.8647 11.0546 42.9507L10.9486 43.3528L9.04862 45.0348L8.49763 45.2417C8.11763 45.3837 7.80962 45.5107 7.52662 45.6407C4.93662 46.8347 0.421608 49.6098 0.0296083 52.7378C-0.435392 56.4498 4.68862 59.6228 7.53562 60.9308C7.85462 61.0778 8.17963 61.2068 8.50663 61.3298L9.05762 61.5358L10.9596 63.2168L11.0656 63.6178C11.0886 63.7038 11.1176 63.7837 11.1546 63.8617C11.8036 65.2267 12.9296 66.4618 14.1656 67.1658L14.7116 67.4767L16.0086 70.6038L15.8436 71.2098C15.4686 72.5828 15.5486 74.2517 16.0566 75.6747C16.0856 75.7567 16.1216 75.8338 16.1666 75.9098L16.3756 76.2678L16.2226 78.8028L15.9786 79.3387C15.8116 79.7047 15.6836 80.0128 15.5746 80.3078C14.8256 82.3378 14.2766 84.5387 14.2856 86.7137C14.2956 89.1657 15.6436 91.8067 18.2566 92.2007C20.8656 92.5937 23.9456 92.0188 26.3936 91.1128C26.6866 91.0038 26.9946 90.8758 27.3626 90.7078L27.8986 90.4628L30.4316 90.3058L30.7916 90.5157C30.8626 90.5577 30.9396 90.5947 31.0266 90.6247C32.4506 91.1307 34.1206 91.2088 35.4926 90.8318L36.0986 90.6658L37.6846 91.3218L39.2706 91.9778L39.5816 92.5237C40.2876 93.7597 41.5236 94.8838 42.8896 95.5308C42.9726 95.5698 43.0536 95.5988 43.1326 95.6188L43.5356 95.7248L45.2176 97.6247L45.4236 98.1758C45.5656 98.5538 45.6926 98.8618 45.8236 99.1468C46.9166 101.517 48.6906 104.099 50.8156 105.664C52.9436 107.23 55.7626 106.313 57.5026 104.584C59.0446 103.051 60.2106 101.104 61.1146 99.1377C61.2456 98.8527 61.3726 98.5437 61.5126 98.1667L61.7186 97.6147L63.4006 95.7118L63.8016 95.6058C63.8866 95.5828 63.9666 95.5538 64.0456 95.5168C65.4106 94.8678 66.6456 93.7418 67.3496 92.5058L67.6606 91.9598L70.7876 90.6628L71.3936 90.8278C72.7666 91.2028 74.4356 91.1228 75.8586 90.6158C75.9406 90.5868 76.0176 90.5508 76.0946 90.5058L76.4526 90.2967L78.9866 90.4507L79.5226 90.6938C79.8406 90.8378 80.1626 90.9768 80.4916 91.0978C83.4306 92.1818 89.2996 93.5547 91.5916 90.5987C93.5206 88.1127 92.2846 82.9588 91.2936 80.2848ZM62.9266 13.2338C62.9626 13.2558 62.9966 13.2777 63.0376 13.2967C63.9306 13.7197 65.0616 14.5207 65.3726 15.9297C65.5056 16.5317 65.3106 17.2608 64.8746 17.7848C64.5176 18.2148 64.0496 18.4427 63.5586 18.4267C63.3556 18.4207 63.1636 18.3798 62.9876 18.3078C62.7306 18.2018 62.5066 18.0258 62.3226 17.7848L62.2456 17.6838L62.2626 17.5578C62.4436 16.1778 62.5026 14.8117 62.4356 13.4977L62.4066 12.9148L62.9266 13.2338ZM37.5616 65.1238C36.6586 65.4358 35.9216 65.7088 35.2436 65.9828L34.8356 66.1468L34.8206 65.7078C34.7946 64.9498 34.7486 64.1188 34.6756 63.0907L34.6596 62.8697L37.8146 61.5608L37.8136 62.0228C37.8116 63.0668 37.7966 63.9887 37.7686 64.8437L37.7616 65.0558L37.5616 65.1238ZM37.0866 69.2508L37.4726 69.2048L37.4276 69.5908C37.3466 70.2928 37.2506 70.9788 37.1426 71.6318L37.1026 71.8747L36.8566 71.8888C36.2236 71.9248 35.5896 71.9788 34.9716 72.0488L34.5886 72.0918L34.6316 71.7087C34.7006 71.0937 34.7536 70.4598 34.7896 69.8238L34.8036 69.5778L35.0466 69.5378C35.6986 69.4298 36.3856 69.3328 37.0866 69.2508ZM50.5626 33.6818L50.6556 33.8718L50.5106 34.0268C49.9266 34.6528 49.2846 35.3157 48.5506 36.0547L48.2246 36.3827L46.9156 33.2278L47.0826 33.0818C47.8586 32.4068 48.4786 31.8507 49.0346 31.3307L49.3556 31.0308L49.5276 31.4347C49.8166 32.1127 50.1446 32.8258 50.5626 33.6818ZM51.7566 28.5798L51.9206 28.3957C52.3426 27.9217 52.7536 27.4358 53.1396 26.9498L53.3796 26.6478L53.6206 26.9498C54.0076 27.4348 54.4186 27.9208 54.8416 28.3938L55.0056 28.5768L54.8626 28.7778C54.4786 29.3158 54.0606 29.8698 53.6226 30.4238L53.3816 30.7287L53.1406 30.4238C52.7016 29.8698 52.2836 29.3157 51.8986 28.7787L51.7566 28.5798ZM37.0366 51.8658L35.2446 52.7618L36.6856 51.3688C37.3096 50.7658 37.9616 50.1177 38.8016 49.2657L38.9466 49.1188L41.2306 50.0638L40.4896 50.3357C39.4676 50.7097 38.4026 51.1818 37.0366 51.8658ZM40.4926 56.2057L41.2336 56.4767L38.9506 57.4238L38.8056 57.2768C37.9676 56.4298 37.3146 55.7818 36.6866 55.1758L35.2456 53.7858L37.0376 54.6797C38.4206 55.3687 39.4776 55.8337 40.4926 56.2057ZM40.2396 45.9908L40.2406 45.7837C40.2476 44.5867 40.2436 43.6668 40.2276 42.8008L40.1916 40.7978L40.8266 42.6977C41.3116 44.1487 41.7326 45.2348 42.1906 46.2198L42.5236 46.9358L40.2396 45.9908ZM42.8166 40.7068L40.9156 40.0738L42.9196 40.1078C43.7916 40.1228 44.7116 40.1257 45.9026 40.1167L46.1096 40.1158L47.0566 42.3987L46.3406 42.0668C45.3566 41.6098 44.2766 41.1938 42.8166 40.7068ZM49.8246 21.9787L49.7076 20.2978L50.4116 21.8288C50.8006 22.6768 51.2616 23.5287 51.7816 24.3617L51.8926 24.5387L51.7686 24.7068C51.4606 25.1228 51.1656 25.5027 50.8656 25.8667L50.4536 26.3667L50.3256 25.7317C50.0816 24.5197 49.9136 23.2567 49.8246 21.9787ZM53.6496 21.7338L53.3776 22.2477L53.1056 21.7338C52.7946 21.1458 52.5276 20.5847 52.2916 20.0177C50.5526 15.8457 50.8686 11.2537 53.1156 8.03374L53.3676 7.67278L53.6196 8.03374C55.8726 11.2507 56.1946 15.8428 54.4606 20.0168C54.2256 20.5848 53.9606 21.1468 53.6496 21.7338ZM48.2646 27.8188L48.3006 27.9028L48.3366 28.0508C48.3496 28.0988 48.3636 28.1457 48.3776 28.1927L48.4606 28.4858L48.3316 28.6128C47.7106 29.2238 47.0286 29.8577 46.2486 30.5517L45.9256 30.8387L41.6736 20.5907L42.2926 20.7737C43.1406 21.0247 43.9796 20.9688 44.7186 20.6128L45.0506 20.4518L45.1486 20.8078C45.8016 23.1748 46.8206 25.4678 48.2646 27.8188ZM43.7896 34.5257L45.0986 37.6808L44.6366 37.6797C43.6026 37.6777 42.6796 37.6628 41.8156 37.6348L41.6036 37.6277L41.5346 37.4278C41.2246 36.5288 40.9516 35.7917 40.6756 35.1097L40.5106 34.7027L40.9496 34.6877C41.7126 34.6607 42.5436 34.6148 43.5676 34.5428L43.7896 34.5257ZM37.7476 41.4897L37.7546 41.7018C37.7836 42.5548 37.7996 43.4778 37.8026 44.5218L37.8046 44.9838L34.6476 43.6788L34.6626 43.4578C34.7336 42.4338 34.7786 41.6018 34.8046 40.8398L34.8196 40.4007L35.2276 40.5647C35.9126 40.8397 36.6496 41.1118 37.5466 41.4208L37.7476 41.4897ZM37.0676 37.2948C36.3646 37.2128 35.6776 37.1168 35.0266 37.0088L34.7836 36.9687L34.7696 36.7228C34.7336 36.0868 34.6796 35.4528 34.6096 34.8378L34.5656 34.4538L34.9496 34.4968C35.5626 34.5658 36.1976 34.6188 36.8346 34.6548L37.0806 34.6688L37.1206 34.9117C37.2296 35.5627 37.3266 36.2497 37.4086 36.9527L37.4536 37.3398L37.0676 37.2948ZM32.2826 42.2577L32.2576 42.6897L22.0046 38.4498L22.5716 38.1418C23.3486 37.7198 23.9026 37.0867 24.1726 36.3127L24.2946 35.9648L24.6156 36.1468C26.7276 37.3448 29.1236 38.2657 31.7776 38.9007L31.8216 38.9108L31.9926 39.0138C32.0356 39.0388 32.0806 39.0628 32.1256 39.0868L32.3876 39.2317L32.3866 39.4137C32.3776 40.2837 32.3436 41.2147 32.2826 42.2577ZM31.7576 35.9678C30.7286 35.2818 29.7166 34.5088 28.7496 33.6678L27.4776 32.5618L29.0576 33.1468C29.9336 33.4708 30.8626 33.7477 31.8176 33.9687L32.0216 34.0157L32.0526 34.2228C32.1296 34.7368 32.1886 35.2148 32.2336 35.6818L32.2956 36.3257L31.7576 35.9678ZM30.8966 31.1738C30.2616 30.9788 29.6766 30.7698 29.1076 30.5358C24.9186 28.8038 21.9046 25.3357 21.2186 21.4767L21.1416 21.0438L21.5746 21.1197C22.2926 21.2467 23.0076 21.4557 23.6986 21.7417C26.6766 22.9737 29.2716 25.6868 30.6406 29.0008C30.8756 29.5688 31.0846 30.1527 31.2806 30.7887L31.4516 31.3437L30.8966 31.1738ZM21.9586 34.3998L21.9756 34.5257C22.0436 35.0297 21.8996 35.4887 21.5576 35.8537C21.0816 36.3627 20.2706 36.4837 19.4926 36.1617C19.0706 35.9877 18.7216 35.7078 18.5076 35.3738C17.7306 34.1588 17.9626 32.7928 18.2936 31.8608C18.3076 31.8198 18.3166 31.7798 18.3256 31.7408L18.4596 31.1698L18.8596 31.5768C19.7446 32.5528 20.7526 33.4758 21.8576 34.3218L21.9586 34.3998ZM13.3536 43.7547C13.3896 43.6958 13.4126 43.6608 13.4306 43.6218C13.8536 42.7288 14.6546 41.5978 16.0636 41.2858C16.4506 41.1998 16.8956 41.2488 17.3176 41.4238C18.0966 41.7458 18.5846 42.4038 18.5626 43.1008C18.5466 43.6008 18.3246 44.0277 17.9196 44.3357L17.8186 44.4128L17.6926 44.3957C16.3126 44.2137 14.9466 44.1557 13.6316 44.2217L13.0486 44.2518L13.3536 43.7547ZM20.1306 52.1897L20.1506 52.1977C20.7186 52.4337 21.2806 52.6988 21.8676 53.0098L22.3816 53.2818L21.8676 53.5538C21.2776 53.8668 20.7166 54.1328 20.1516 54.3678C16.8426 55.7468 13.0886 55.8347 10.1106 54.6037C9.41963 54.3177 8.76561 53.9608 8.16761 53.5438L7.80662 53.2917L8.16761 53.0398C11.3786 50.7908 15.9626 50.4657 20.1306 52.1897ZM21.9586 50.3138L20.4276 49.6117L22.1076 49.7267C23.3846 49.8137 24.6476 49.9808 25.8616 50.2228L26.4966 50.3498L25.9976 50.7618C25.6346 51.0618 25.2556 51.3578 24.8386 51.6658L24.6706 51.7908L24.4926 51.6797C23.6606 51.1637 22.8086 50.7038 21.9586 50.3138ZM20.9316 45.0528L20.5756 44.9548L20.7356 44.6218C21.0906 43.8828 21.1456 43.0438 20.8936 42.1958L20.7096 41.5777L30.9626 45.8177L30.6766 46.1407C29.9836 46.9227 29.3506 47.6047 28.7396 48.2267L28.6116 48.3567L28.3236 48.2748C28.2746 48.2598 28.2266 48.2458 28.1766 48.2328L27.9846 48.1847L27.9456 48.1608C25.6196 46.7358 23.2726 45.6968 20.9316 45.0528ZM27.0836 53.0378C27.5666 52.6528 28.0526 52.2418 28.5276 51.8168L28.7116 51.6528L28.9116 51.7958C29.4486 52.1788 30.0026 52.5958 30.5576 53.0348L30.8626 53.2757L30.5576 53.5177C30.0026 53.9577 29.4486 54.3748 28.9126 54.7588L28.7126 54.9018L28.5286 54.7378C28.0526 54.3138 27.5656 53.9027 27.0826 53.5177L26.7806 53.2768L27.0836 53.0378ZM31.5656 49.4208L31.1606 49.2488L31.4606 48.9278C31.9816 48.3698 32.5366 47.7488 33.2086 46.9748L33.3536 46.8068L36.5096 48.1117L36.1826 48.4377C35.4456 49.1717 34.7826 49.8137 34.1566 50.4007L34.0016 50.5458L33.8116 50.4527C32.9516 50.0337 32.2376 49.7058 31.5656 49.4208ZM31.5706 57.1308C32.2436 56.8438 32.9576 56.5158 33.8166 56.0958L34.0066 56.0027L34.1616 56.1468C34.7866 56.7308 35.4506 57.3717 36.1896 58.1067L36.5176 58.4328L33.3626 59.7417L33.2176 59.5748C32.5396 58.7958 31.9836 58.1758 31.4676 57.6238L31.1676 57.3028L31.5706 57.1308ZM32.2696 63.8608L32.2956 64.2917C32.3586 65.3337 32.3926 66.2647 32.4006 67.1357L32.4026 67.3177L32.1356 67.4668C32.0926 67.4898 32.0496 67.5128 32.0076 67.5378L31.7926 67.6507C29.1116 68.2947 26.7696 69.1978 24.6346 70.4128L24.3136 70.5948L24.1916 70.2468C23.9206 69.4728 23.3656 68.8408 22.5876 68.4188L22.0206 68.1117L32.2696 63.8608ZM31.7776 70.5837L32.3166 70.2248L32.2556 70.8688C32.2106 71.3388 32.1526 71.8158 32.0756 72.3278L32.0446 72.5348L31.8406 72.5818C30.8866 72.8038 29.9576 73.0818 29.0816 73.4068L27.5026 73.9938L28.7726 72.8868C29.7376 72.0458 30.7486 71.2707 31.7776 70.5837ZM29.1346 76.0178C29.7026 75.7828 30.2876 75.5737 30.9226 75.3777L31.4786 75.2068L31.3076 75.7627C31.1126 76.3978 30.9036 76.9827 30.6696 77.5518C28.9496 81.7308 25.4786 84.7538 21.6116 85.4408L21.1776 85.5178L21.2546 85.0837C21.9376 81.2177 24.9566 77.7438 29.1346 76.0178ZM40.6056 53.6528L39.6516 53.2718L40.4676 52.9448C40.5136 52.9258 40.5586 52.9068 40.6046 52.8888C41.7546 52.4428 43.5226 51.8968 45.4176 51.8248L45.4846 51.8218L48.9736 53.2648L45.4866 54.7118L45.4196 54.7098C43.5256 54.6408 41.7556 54.0968 40.6056 53.6528ZM46.7786 48.6948L46.7326 48.6457C45.4416 47.2577 44.5756 45.6217 44.0766 44.4947C44.0576 44.4507 44.0386 44.4068 44.0206 44.3628L43.6686 43.5488L44.6166 43.9548C45.7446 44.4518 47.3806 45.3158 48.7706 46.6058L48.8196 46.6518L50.2666 50.1388L46.7786 48.6948ZM51.9796 36.9037C51.2976 38.2717 50.8266 39.3368 50.4526 40.3588L50.1816 41.0998L49.2346 38.8168L49.3816 38.6708C50.2336 37.8288 50.8806 37.1747 51.4826 36.5517L52.8746 35.1088L51.9796 36.9037ZM56.4356 25.7287L56.3086 26.3647L55.8956 25.8647C55.5946 25.5007 55.2996 25.1207 54.9916 24.7057L54.8666 24.5378L54.9776 24.3597C55.4956 23.5267 55.9556 22.6747 56.3446 21.8257L57.0466 20.2938L56.9316 21.9748C56.8446 23.2528 56.6776 24.5157 56.4356 25.7287ZM56.2296 4.51574C58.1736 6.79074 59.4256 9.48775 59.8506 12.3147L59.8616 12.3888L59.8376 12.4598C59.6846 12.9078 59.5696 13.3227 59.4836 13.7267L59.1696 15.2048L58.8796 13.7217C58.2686 10.5957 57.2066 7.61474 55.7236 4.86174L54.3566 2.32573L56.2296 4.51574ZM50.5056 4.51879L52.3746 2.32677L51.0116 4.86376C49.5306 7.61876 48.4726 10.6018 47.8656 13.7278L47.5776 15.2128L47.2626 13.7328C47.1766 13.3298 47.0606 12.9148 46.9066 12.4668L46.8826 12.3957L46.8936 12.3218C47.3156 9.49377 48.5646 6.79579 50.5056 4.51879ZM43.7086 13.3078C43.7466 13.2898 43.7816 13.2678 43.8156 13.2458L44.3136 12.9377L44.3096 13.5077C44.2446 14.8227 44.3046 16.1887 44.4876 17.5677L44.5046 17.6938L44.4276 17.7948C44.1196 18.1998 43.6926 18.4218 43.1936 18.4388C42.9816 18.4458 42.7726 18.4078 42.5726 18.3248C41.7326 17.9778 41.1736 16.8637 41.3756 15.9427C41.6866 14.5347 42.8156 13.7328 43.7086 13.3078ZM36.4116 24.0588C37.1856 23.7878 37.8166 23.2327 38.2386 22.4557L38.5466 21.8888L42.7986 32.1368L42.3676 32.1628C41.3236 32.2258 40.3936 32.2598 39.5236 32.2677L39.3426 32.2698L39.1936 32.0038C39.1706 31.9608 39.1466 31.9168 39.1216 31.8738L39.0086 31.6587C38.3646 28.9767 37.4616 26.6358 36.2466 24.5008L36.0646 24.1797L36.4116 24.0588ZM33.7726 28.6388C34.6136 29.6048 35.3886 30.6158 36.0756 31.6438L36.4356 32.1828L35.7906 32.1208C35.3246 32.0768 34.8336 32.0158 34.3316 31.9408L34.1246 31.9098L34.0776 31.7057C33.8556 30.7507 33.5776 29.8218 33.2526 28.9468L32.6656 27.3667L33.7726 28.6388ZM31.8346 18.2178C31.8736 18.2088 31.9126 18.1998 31.9526 18.1858C33.2746 17.7138 34.5116 17.7867 35.4656 18.3957C35.9856 18.7277 36.3626 19.3807 36.4256 20.0597C36.4776 20.6167 36.3086 21.1088 35.9486 21.4448C35.5836 21.7868 35.1246 21.9318 34.6206 21.8638L34.4946 21.8467L34.4176 21.7458C33.5706 20.6418 32.6456 19.6348 31.6686 18.7508L31.2366 18.3597L31.8346 18.2178ZM20.9306 16.7898C23.9206 17.0248 26.7006 18.0408 29.0066 19.7438L29.0666 19.7878L29.0996 19.8548C29.3086 20.2788 29.5196 20.6538 29.7446 21.0008L30.5686 22.2677L29.3146 21.4238C26.6876 19.6548 23.7966 18.2817 20.8176 17.3907L18.0576 16.5638L20.9306 16.7898ZM16.8846 20.8398L16.6556 17.9678L17.4856 20.7267C18.3876 23.7227 19.7476 26.5797 21.5296 29.2187L22.3746 30.4708L21.1076 29.6498C20.7606 29.4248 20.3856 29.2148 19.9606 29.0058L19.8936 28.9728L19.8486 28.9128C18.1476 26.6148 17.1226 23.8228 16.8846 20.8398ZM4.64863 50.4297C6.92363 48.4857 9.62061 47.2328 12.4476 46.8078L12.5216 46.7967L12.5926 46.8208C13.0406 46.9738 13.4546 47.0897 13.8586 47.1747L15.3386 47.4878L13.8546 47.7778C10.7286 48.3878 7.7476 49.4498 4.9946 50.9338L2.45762 52.3008L4.64863 50.4297ZM12.6006 59.7527L12.5296 59.7768L12.4556 59.7657C11.2476 59.5857 10.0606 59.2568 8.92661 58.7878C7.40061 58.1568 5.96162 57.2697 4.65162 56.1537L2.45862 54.2848L4.99662 55.6487C5.90062 56.1347 6.8446 56.5818 7.8006 56.9778C9.7396 57.7798 11.7776 58.3908 13.8606 58.7948L15.3466 59.0837L13.8666 59.3987C13.4646 59.4827 13.0506 59.5997 12.6006 59.7527ZM17.9316 64.7828C17.4076 65.2188 16.6796 65.4148 16.0766 65.2828C15.8926 65.2428 15.7106 65.1858 15.5366 65.1138C14.6676 64.7548 13.9436 64.0067 13.4416 62.9507C13.4226 62.9107 13.4006 62.8768 13.3796 62.8418L13.0716 62.3437L13.6416 62.3498C14.9566 62.4148 16.3226 62.3547 17.7026 62.1717L17.8286 62.1548L17.9296 62.2317C18.3346 62.5397 18.5566 62.9668 18.5736 63.4668C18.5896 63.9578 18.3616 64.4258 17.9316 64.7828ZM20.4316 56.9527L21.9626 56.2488C22.8116 55.8588 23.6636 55.3977 24.4956 54.8777L24.6736 54.7668L24.8416 54.8918C25.2616 55.2028 25.6406 55.4978 26.0016 55.7948L26.5016 56.2068L25.8666 56.3337C24.6546 56.5767 23.3916 56.7448 22.1136 56.8348L20.4316 56.9527ZM20.9066 64.3678C21.1576 63.5188 21.1016 62.6808 20.7456 61.9418L20.5856 61.6097L20.9416 61.5118C23.3086 60.8578 25.6026 59.8388 27.9526 58.3948L28.0366 58.3588L28.1846 58.3227C28.2336 58.3097 28.2826 58.2948 28.3316 58.2808L28.6196 58.1988L28.7476 58.3288C29.3586 58.9498 29.9926 59.6318 30.6866 60.4128L30.9736 60.7358L20.7256 64.9878L20.9066 64.3678ZM18.8866 74.9888L18.4956 75.4208L18.3586 74.8548C18.3426 74.7868 18.3336 74.7467 18.3186 74.7057C17.9866 73.7747 17.7526 72.4087 18.5286 71.1927C19.0366 70.3967 20.2186 70.0037 21.0586 70.3517C21.2576 70.4337 21.4326 70.5547 21.5776 70.7087C21.9196 71.0737 22.0646 71.5337 21.9966 72.0367L21.9796 72.1628L21.8786 72.2397C20.7766 73.0877 19.7696 74.0128 18.8866 74.9888ZM21.5586 77.3448C19.7806 79.9868 18.4226 82.8458 17.5256 85.8418L16.6986 88.6017L16.9236 85.7298C17.1576 82.7468 18.1796 79.9537 19.8776 77.6537L19.9216 77.5937L19.9886 77.5608C20.4126 77.3518 20.7876 77.1408 21.1346 76.9158L22.4016 76.0918L21.5586 77.3448ZM29.7826 85.5528C29.5576 85.8988 29.3476 86.2738 29.1386 86.6998L29.1056 86.7668L29.0456 86.8118C26.7476 88.5128 23.9566 89.5378 20.9736 89.7757L18.1016 90.0048L20.8606 89.1747C23.8566 88.2737 26.7136 86.9128 29.3526 85.1318L30.6056 84.2858L29.7826 85.5528ZM36.1016 74.9018C35.4166 75.9298 34.6436 76.9418 33.8016 77.9098L32.6956 79.1818L33.2806 77.6008C33.6046 76.7258 33.8816 75.7968 34.1026 74.8408L34.1496 74.6368L34.3566 74.6058C34.8696 74.5288 35.3466 74.4697 35.8156 74.4247L36.4606 74.3628L36.1016 74.9018ZM40.2406 63.7408C40.2556 62.8718 40.2576 61.9517 40.2496 60.7577L40.2486 60.5508L42.5316 59.6037L42.1996 60.3198C41.7426 61.3068 41.3226 62.3937 40.8406 63.8437L40.2076 65.7447L40.2406 63.7408ZM35.5076 88.1507C34.2926 88.9277 32.9266 88.6968 31.9946 88.3658C31.9526 88.3508 31.9126 88.3418 31.8716 88.3318L31.3016 88.1977L31.7106 87.7988C32.6856 86.9158 33.6096 85.9068 34.4556 84.8018L34.5326 84.7007L34.6586 84.6838C35.1636 84.6158 35.6206 84.7587 35.9866 85.1017C36.3456 85.4377 36.5156 85.9298 36.4646 86.4858C36.4026 87.1648 36.0266 87.8187 35.5076 88.1507ZM38.5836 84.6558L38.2756 84.0887C37.8546 83.3137 37.2256 82.7617 36.4466 82.4867L36.0986 82.3647L36.2806 82.0438C37.4926 79.9078 38.3926 77.5657 39.0336 74.8827L39.0446 74.8378L39.1476 74.6667C39.1726 74.6237 39.1956 74.5797 39.2196 74.5367L39.3666 74.2728L39.5476 74.2737C40.4146 74.2807 41.3456 74.3138 42.3916 74.3758L42.8226 74.4018L38.5836 84.6558ZM43.8116 72.0118L43.5906 71.9968C42.5636 71.9248 41.7326 71.8798 40.9736 71.8548L40.5346 71.8398L40.6986 71.4318C40.9726 70.7508 41.2446 70.0138 41.5546 69.1128L41.6236 68.9128L41.8356 68.9058C42.6906 68.8768 43.6136 68.8607 44.6566 68.8567L45.1186 68.8558L43.8116 72.0118ZM46.1246 66.4198L45.9176 66.4188C45.1066 66.4138 44.0356 66.4118 42.9346 66.4318L40.9306 66.4687L42.8316 65.8328C44.2826 65.3468 45.3686 64.9267 46.3536 64.4687L47.0696 64.1368L46.1246 66.4198ZM48.8286 59.8808L48.7796 59.9267C47.3906 61.2187 45.7546 62.0838 44.6276 62.5818C44.5836 62.6018 44.5376 62.6208 44.4926 62.6388L43.6796 62.9897L44.0306 62.1747C44.0486 62.1307 44.0676 62.0857 44.0866 62.0417C44.5836 60.9137 45.4486 59.2768 46.7376 57.8868L46.7836 57.8378L50.2706 56.3907L48.8286 59.8808ZM53.3936 48.8407L51.9466 45.3537L51.9486 45.2867C52.0176 43.3917 52.5616 41.6228 53.0066 40.4728C53.0236 40.4278 53.0426 40.3837 53.0606 40.3387L53.3876 39.5138L53.7156 40.3398C53.7336 40.3838 53.7516 40.4278 53.7696 40.4728C54.2156 41.6218 54.7616 43.3898 54.8336 45.2848L54.8356 45.3517L53.3936 48.8407ZM56.5956 41.0967L56.3236 40.3558C55.9496 39.3358 55.4776 38.2718 54.7936 36.9028L53.8976 35.1108L55.2896 36.5508C55.8936 37.1748 56.5416 37.8277 57.3926 38.6667L57.5396 38.8118L56.5956 41.0967ZM58.5476 36.3768L58.2216 36.0497C57.4886 35.3147 56.8466 34.6517 56.2586 34.0237L56.1136 33.8697L56.2066 33.6797C56.6236 32.8227 56.9516 32.1088 57.2386 31.4328L57.4106 31.0287L57.7316 31.3288C58.2856 31.8458 58.9066 32.4018 59.6846 33.0768L59.8516 33.2217L58.5476 36.3768ZM60.8416 30.8298L60.5186 30.5438C59.7396 29.8538 59.0566 29.2197 58.4326 28.6067L58.3026 28.4798L58.3846 28.1888C58.3986 28.1408 58.4126 28.0928 58.4256 28.0438L58.4736 27.8508L58.4976 27.8118C59.9386 25.4598 60.9556 23.1658 61.6066 20.7978L61.7046 20.4418L62.0366 20.6017C62.7826 20.9597 63.6166 21.0108 64.4626 20.7598L65.0816 20.5757L60.8416 30.8298ZM102.188 56.1138C99.9126 58.0578 97.2156 59.3097 94.3886 59.7347L94.3146 59.7458L94.2436 59.7217C93.7946 59.5687 93.3806 59.4538 92.9766 59.3678L91.4996 59.0538L92.9816 58.7648C96.1066 58.1548 99.0876 57.0928 101.842 55.6088L104.378 54.2417L102.188 56.1138ZM56.2736 72.8617L56.1806 72.6717L56.3256 72.5168C56.9086 71.8918 57.5506 71.2288 58.2856 70.4878L58.6116 70.1598L59.9206 73.3148L59.7536 73.4607C58.9756 74.1367 58.3556 74.6937 57.8016 75.2107L57.4806 75.5107L57.3086 75.1067C57.0216 74.4337 56.6926 73.7207 56.2736 72.8617ZM55.0796 77.9637L54.9156 78.1478C54.4916 78.6228 54.0816 79.1087 53.6966 79.5937L53.4566 79.8957L53.2156 79.5937C52.8276 79.1077 52.4166 78.6228 51.9946 78.1498L51.8306 77.9668L51.9736 77.7657C52.3586 77.2267 52.7756 76.6737 53.2136 76.1197L53.4546 75.8148L53.6956 76.1197C54.1336 76.6727 54.5516 77.2268 54.9366 77.7648L55.0796 77.9637ZM69.2756 41.4198C70.1766 41.1088 70.9126 40.8358 71.5936 40.5608L72.0016 40.3968L72.0166 40.8357C72.0426 41.5957 72.0896 42.4278 72.1616 43.4538L72.1776 43.6747L69.0226 44.9838L69.0236 44.5218C69.0256 43.4798 69.0406 42.5578 69.0686 41.7018L69.0756 41.4897L69.2756 41.4198ZM69.7496 37.2928L69.3636 37.3378L69.4086 36.9518C69.4896 36.2498 69.5856 35.5628 69.6936 34.9108L69.7336 34.6678L69.9796 34.6537C70.6136 34.6177 71.2476 34.5638 71.8646 34.4938L72.2486 34.4498L72.2056 34.8337C72.1366 35.4507 72.0836 36.0847 72.0476 36.7187L72.0336 36.9648L71.7906 37.0047C71.1386 37.1138 70.4526 37.2108 69.7496 37.2928ZM86.6856 54.3458C86.1176 54.1098 85.5556 53.8447 84.9686 53.5337L84.4546 53.2618L84.9686 52.9897C85.5556 52.6777 86.1176 52.4118 86.6846 52.1758C89.9936 50.7968 93.7476 50.7087 96.7256 51.9397C97.4166 52.2257 98.0696 52.5817 98.6676 52.9997L99.0286 53.2518L98.6676 53.5047C95.4576 55.7528 90.8746 56.0778 86.6856 54.3458ZM89.1446 62.1468C90.5236 62.3278 91.8896 62.3868 93.2056 62.3208L93.7766 62.3147L93.4686 62.8138C93.4476 62.8478 93.4256 62.8827 93.4066 62.9217C92.9826 63.8147 92.1826 64.9457 90.7736 65.2577C90.3866 65.3427 89.9416 65.2937 89.5196 65.1197C88.7416 64.7977 88.2526 64.1397 88.2756 63.4427C88.2916 62.9427 88.5136 62.5158 88.9176 62.2078L89.0186 62.1308L89.1446 62.1468ZM84.8766 56.2287L86.4086 56.9308L84.7276 56.8158C83.4496 56.7278 82.1866 56.5608 80.9736 56.3198L80.3386 56.1927L80.8376 55.7808C81.1996 55.4818 81.5786 55.1858 81.9966 54.8758L82.1646 54.7508L82.3426 54.8617C83.1746 55.3797 84.0276 55.8397 84.8766 56.2287ZM85.9046 61.4917L86.2606 61.5898L86.1006 61.9217C85.7456 62.6607 85.6906 63.4998 85.9426 64.3478L86.1266 64.9658L75.8736 60.7258L76.1606 60.4028C76.8536 59.6208 77.4876 58.9378 78.0966 58.3168L78.2246 58.1868L78.5126 58.2688C78.5616 58.2828 78.6096 58.2978 78.6586 58.3108L78.8526 58.3588L78.8906 58.3827C81.2166 59.8077 83.5636 60.8477 85.9046 61.4917ZM79.7526 53.5058C79.2696 53.8918 78.7836 54.3027 78.3086 54.7267L78.1246 54.8907L77.9246 54.7477C77.3876 54.3647 76.8336 53.9468 76.2776 53.5088L75.9726 53.2677L76.2776 53.0257C76.8316 52.5867 77.3856 52.1688 77.9226 51.7848L78.1226 51.6418L78.3066 51.8058C78.7826 52.2308 79.2696 52.6408 79.7526 53.0248L80.0546 53.2648L79.7526 53.5058ZM75.2706 57.1238L75.6746 57.2958L75.3746 57.6167C74.8546 58.1737 74.2996 58.7948 73.6266 59.5698L73.4816 59.7367L70.3246 58.4318L70.6516 58.1058C71.3916 57.3688 72.0546 56.7267 72.6776 56.1427L72.8326 55.9977L73.0226 56.0907C73.8776 56.5067 74.5916 56.8348 75.2706 57.1238ZM75.2656 49.4128C74.5886 49.7018 73.8746 50.0297 73.0206 50.4477L72.8306 50.5408L72.6756 50.3957C72.0436 49.8057 71.3806 49.1647 70.6466 48.4347L70.3186 48.1088L73.4736 46.7997L73.6186 46.9668C74.2916 47.7408 74.8486 48.3608 75.3696 48.9188L75.6696 49.2397L75.2656 49.4128ZM66.0086 63.8458C65.5236 62.3968 65.1036 61.3108 64.6446 60.3238L64.3126 59.6078L66.5966 60.5517L66.5956 60.7588C66.5886 61.9548 66.5926 62.8747 66.6086 63.7417L66.6446 65.7447L66.0086 63.8458ZM65.9196 66.4708L63.9176 66.4368C63.0456 66.4218 62.1256 66.4188 60.9336 66.4278L60.7266 66.4288L59.7796 64.1457L60.4956 64.4778C61.4776 64.9318 62.5546 65.3488 64.0196 65.8378L65.9196 66.4708ZM69.7996 54.6778L71.5916 53.7818L70.1516 55.1747C69.5286 55.7767 68.8766 56.4258 68.0356 57.2778L67.8906 57.4247L65.6066 56.4808L66.3476 56.2087C67.3676 55.8337 68.4316 55.3618 69.7996 54.6778ZM66.3436 50.3378L65.6026 50.0668L67.8856 49.1197L68.0316 49.2668C68.8696 50.1138 69.5226 50.7617 70.1506 51.3667L71.5926 52.7588L69.7996 51.8638C68.4206 51.1768 67.3616 50.7098 66.3436 50.3378ZM74.5666 42.6828L74.5406 42.2518C74.4776 41.2098 74.4436 40.2788 74.4356 39.4078L74.4336 39.2258L74.6996 39.0768C74.7426 39.0528 74.7866 39.0298 74.8286 39.0047L74.9586 38.9258L75.0426 38.8918C77.7246 38.2478 80.0666 37.3438 82.2006 36.1297L82.5216 35.9477L82.6436 36.2958C82.9146 37.0698 83.4696 37.7018 84.2466 38.1238L84.8136 38.4308L74.5666 42.6828ZM75.0586 35.9598L74.5196 36.3188L74.5806 35.6738C74.6256 35.2038 74.6836 34.7268 74.7606 34.2148L74.7916 34.0077L74.9956 33.9607C75.9516 33.7377 76.8806 33.4607 77.7546 33.1357L79.3346 32.5488L78.0646 33.6558C77.0976 34.4987 76.0866 35.2738 75.0586 35.9598ZM77.7016 30.5248C77.1346 30.7598 76.5496 30.9688 75.9136 31.1648L75.3576 31.3357L75.5286 30.7798C75.7236 30.1448 75.9326 29.5598 76.1666 28.9908C77.8866 24.8108 81.3586 21.7887 85.2246 21.1017L85.6586 21.0248L85.5826 21.4587C84.8986 25.3257 81.8796 28.7998 77.7016 30.5248ZM66.2296 52.8907L67.1876 53.2728L66.3636 53.6008C66.3196 53.6188 66.2756 53.6378 66.2306 53.6548C65.0806 54.1008 63.3126 54.6468 61.4186 54.7178L61.3516 54.7208L57.8626 53.2778L61.3496 51.8307L61.4166 51.8337C63.3116 51.9027 65.0806 52.4467 66.2296 52.8907ZM60.0586 57.8487L60.1046 57.8978C61.3956 59.2868 62.2616 60.9217 62.7606 62.0497C62.7806 62.0947 62.7996 62.1408 62.8186 62.1858L63.1656 62.9938L62.2206 62.5898C61.0926 62.0918 59.4556 61.2278 58.0656 59.9388L58.0166 59.8927L56.5696 56.4058L60.0586 57.8487ZM57.0116 84.5648L57.1286 86.2447L56.4246 84.7137C56.0346 83.8647 55.5736 83.0128 55.0546 82.1808L54.9436 82.0038L55.0676 81.8357C55.3756 81.4197 55.6706 81.0398 55.9706 80.6758L56.3826 80.1758L56.5096 80.8108C56.7546 82.0248 56.9226 83.2878 57.0116 84.5648ZM53.1866 84.8097L53.4586 84.2958L53.7306 84.8088C54.0416 85.3958 54.3076 85.9568 54.5446 86.5248C56.2836 90.6978 55.9676 95.2898 53.7206 98.5088L53.4686 98.8697L53.2156 98.5088C50.9626 95.2918 50.6406 90.6998 52.3746 86.5268C52.6106 85.9588 52.8756 85.3977 53.1866 84.8097ZM58.5716 78.7258L58.4996 78.4938C58.4866 78.4468 58.4726 78.3998 58.4586 78.3528L58.3756 78.0588L58.5046 77.9318C59.1256 77.3208 59.8076 76.6858 60.5876 75.9928L60.9106 75.7057L65.1626 85.9538L64.5436 85.7707C63.6946 85.5197 62.8566 85.5758 62.1176 85.9318L61.7856 86.0928L61.6876 85.7367C61.0346 83.3687 60.0146 81.0748 58.5716 78.7258ZM63.0466 72.0178L61.7376 68.8628L62.1996 68.8638C63.2426 68.8658 64.1656 68.8807 65.0206 68.9087L65.2326 68.9158L65.3016 69.1158C65.6136 70.0188 65.8866 70.7558 66.1606 71.4338L66.3256 71.8418L65.8866 71.8567C65.1306 71.8827 64.2996 71.9288 63.2696 72.0018L63.0466 72.0178ZM69.0886 65.0538L69.0816 64.8418C69.0526 63.9838 69.0366 63.0617 69.0336 62.0207L69.0326 61.5588L72.1886 62.8638L72.1736 63.0848C72.1026 64.1078 72.0566 64.9398 72.0316 65.7028L72.0166 66.1418L71.6086 65.9778C70.9316 65.7058 70.1946 65.4328 69.2896 65.1218L69.0886 65.0538ZM69.7686 69.2497C70.4716 69.3317 71.1586 69.4278 71.8096 69.5358L72.0526 69.5757L72.0666 69.8218C72.1026 70.4588 72.1566 71.0927 72.2266 71.7057L72.2706 72.0887L71.8866 72.0458C71.2726 71.9768 70.6386 71.9238 70.0016 71.8877L69.7556 71.8738L69.7146 71.6308C69.6066 70.9798 69.5096 70.2938 69.4266 69.5898L69.3816 69.2038L69.7686 69.2497ZM74.5536 64.2858L74.5796 63.8548L84.8326 68.0948L84.2656 68.4028C83.4886 68.8258 82.9346 69.4587 82.6646 70.2317L82.5426 70.5798L82.2216 70.3978C80.1096 69.1998 77.7136 68.2778 75.0596 67.6438L75.0146 67.6327L74.8446 67.5308C74.8006 67.5048 74.7556 67.4808 74.7106 67.4568L74.4486 67.3108L74.4496 67.1288C74.4586 66.2588 74.4926 65.3278 74.5536 64.2858ZM75.0786 70.5757C76.1086 71.2617 77.1216 72.0358 78.0866 72.8758L79.3576 73.9808L77.7786 73.3968C76.9026 73.0728 75.9736 72.7958 75.0186 72.5748L74.8146 72.5278L74.7836 72.3208C74.7066 71.8078 74.6476 71.3307 74.6016 70.8617L74.5396 70.2168L75.0786 70.5757ZM75.9396 75.3697C76.5746 75.5647 77.1596 75.7737 77.7286 76.0077L77.7486 76.0157C81.9166 77.7397 84.9316 81.2068 85.6176 85.0658L85.6946 85.4988L85.2616 85.4228C84.5436 85.2958 83.8286 85.0868 83.1376 84.8008C80.1596 83.5688 77.5646 80.8558 76.1956 77.5428C75.9616 76.9778 75.7526 76.3928 75.5556 75.7548L75.3836 75.1998L75.9396 75.3697ZM84.8776 72.1438L84.8606 72.0178C84.7926 71.5138 84.9366 71.0547 85.2786 70.6898C85.7546 70.1807 86.5656 70.0598 87.3436 70.3818C87.7656 70.5558 88.1146 70.8358 88.3286 71.1698C89.1056 72.3858 88.8736 73.7508 88.5426 74.6828C88.5286 74.7238 88.5196 74.7637 88.5036 74.8307L88.3676 75.3987L87.9756 74.9658C87.0916 73.9898 86.0836 73.0668 84.9786 72.2208L84.8776 72.1438ZM94.2356 46.7908L94.3066 46.7668L94.3806 46.7778C97.2156 47.2008 99.9016 48.4448 102.184 50.3898L104.377 52.2588L101.839 50.8948C99.0996 49.4218 96.0836 48.3528 92.9746 47.7488L91.4916 47.4607L92.9696 47.1457C93.3736 47.0597 93.7876 46.9438 94.2356 46.7908ZM88.9036 41.7607C89.4276 41.3247 90.1566 41.1277 90.7586 41.2607C91.8646 41.5037 92.7916 42.3257 93.3946 43.5937C93.4126 43.6317 93.4346 43.6658 93.4556 43.6998L93.7766 44.2237L93.1946 44.1948C91.8796 44.1298 90.5126 44.1898 89.1336 44.3738L89.0076 44.3898L88.9066 44.3127C88.5026 44.0047 88.2796 43.5778 88.2626 43.0788C88.2466 42.5858 88.4746 42.1187 88.9036 41.7607ZM86.4056 49.5907L84.8746 50.2948C84.0256 50.6848 83.1736 51.1458 82.3416 51.6648L82.1646 51.7757L81.9966 51.6518C81.5876 51.3498 81.1976 51.0458 80.8366 50.7488L80.3366 50.3368L80.9716 50.2087C82.1836 49.9657 83.4466 49.7978 84.7246 49.7078L86.4056 49.5907ZM85.9296 42.1758C85.6786 43.0248 85.7346 43.8627 86.0906 44.6017L86.2506 44.9338L85.8956 45.0318C83.5276 45.6848 81.2346 46.7047 78.8846 48.1487L78.6526 48.2208C78.6046 48.2338 78.5576 48.2478 78.5096 48.2618L78.2166 48.3448L78.0896 48.2157C77.4796 47.5957 76.8446 46.9137 76.1506 46.1327L75.8636 45.8097L86.1116 41.5578L85.9296 42.1758ZM88.3496 31.1478L88.4846 31.7178C88.4936 31.7578 88.5026 31.7978 88.5166 31.8368C88.8486 32.7688 89.0826 34.1338 88.3066 35.3498C87.7986 36.1458 86.6166 36.5388 85.7766 36.1908C85.5776 36.1078 85.4026 35.9878 85.2566 35.8328C84.9146 35.4678 84.7696 35.0088 84.8376 34.5047L84.8546 34.3788L84.9556 34.3017C86.0596 33.4547 87.0666 32.5298 87.9496 31.5528L88.3496 31.1478ZM85.2776 29.1988C87.0566 26.5568 88.4136 23.6978 89.3106 20.7018L90.1376 17.9427L89.9126 20.8138C89.6786 23.7968 88.6566 26.5898 86.9586 28.8898L86.9146 28.9498L86.8476 28.9828C86.4216 29.1918 86.0466 29.4037 85.7016 29.6277L84.4336 30.4527L85.2776 29.1988ZM77.0536 20.9917C77.2786 20.6457 77.4886 20.2708 77.6976 19.8448L77.7306 19.7778L77.7906 19.7328C80.0886 18.0318 82.8796 17.0068 85.8626 16.7688L88.7346 16.5398L85.9756 17.3697C82.9806 18.2707 80.1236 19.6318 77.4836 21.4128L76.2306 22.2588L77.0536 20.9917ZM70.7346 31.6418C71.4196 30.6128 72.1936 29.6008 73.0346 28.6338L74.1406 27.3628L73.5556 28.9427C73.2316 29.8177 72.9546 30.7468 72.7336 31.7018L72.6866 31.9058L72.4796 31.9368C71.9686 32.0128 71.4916 32.0728 71.0206 32.1188L70.3756 32.1818L70.7346 31.6418ZM66.5956 42.8028C66.5816 43.6678 66.5786 44.5887 66.5866 45.7867L66.5876 45.9938L64.3046 46.9408L64.6366 46.2248C65.0936 45.2378 65.5136 44.1507 65.9956 42.7007L66.6286 40.7988L66.5956 42.8028ZM71.3286 18.3927C72.5436 17.6147 73.9096 17.8468 74.8416 18.1778C74.8836 18.1928 74.9236 18.2018 74.9646 18.2118L75.5576 18.3537L75.1256 18.7458C74.1506 19.6288 73.2266 20.6378 72.3806 21.7428L72.3036 21.8437L72.1776 21.8608C71.8776 21.9018 71.5946 21.8678 71.3376 21.7618C71.1616 21.6888 70.9976 21.5817 70.8496 21.4427C70.4906 21.1067 70.3206 20.6148 70.3716 20.0588C70.4326 19.3788 70.8096 18.7248 71.3286 18.3927ZM68.2526 21.8877L68.5606 22.4548C68.9816 23.2298 69.6086 23.7828 70.3896 24.0568L70.7376 24.1778L70.5556 24.4988C69.3436 26.6348 68.4426 28.9768 67.8026 31.6598L67.7916 31.7048L67.6896 31.8747C67.6646 31.9187 67.6406 31.9628 67.6166 32.0068L67.4696 32.2707L67.2876 32.2688C66.4126 32.2618 65.4826 32.2287 64.4436 32.1667L64.0126 32.1407L68.2526 21.8877ZM63.0246 34.5318L63.2456 34.5467C64.2736 34.6187 65.1056 34.6638 65.8636 34.6888L66.3026 34.7038L66.1386 35.1117C65.8646 35.7927 65.5926 36.5298 65.2826 37.4318L65.2136 37.6318L65.0016 37.6388C64.1416 37.6678 63.2186 37.6838 62.1806 37.6868L61.7186 37.6877L63.0246 34.5318ZM60.7116 40.1238L60.9186 40.1247C62.1136 40.1307 63.0336 40.1267 63.9016 40.1117L65.9046 40.0757L64.0046 40.7118C62.5536 41.1978 61.4666 41.6177 60.4826 42.0757L59.7666 42.4087L60.7116 40.1238ZM58.0086 46.6628L58.0576 46.6167C59.4466 45.3257 61.0816 44.4598 62.2096 43.9618C62.2536 43.9428 62.2976 43.9238 62.3416 43.9058L63.1576 43.5528L62.8066 44.3678C62.7886 44.4118 62.7696 44.4568 62.7506 44.5008C62.2526 45.6288 61.3886 47.2658 60.0996 48.6558L60.0536 48.7048L56.5666 50.1518L58.0086 46.6628ZM53.4426 57.7038L54.8896 61.1908L54.8876 61.2577C54.8186 63.1527 54.2746 64.9218 53.8296 66.0718C53.8126 66.1168 53.7936 66.1607 53.7756 66.2057L53.4486 67.0308L53.1216 66.2078C53.1026 66.1628 53.0836 66.1168 53.0666 66.0718C52.6206 64.9228 52.0746 63.1558 52.0026 61.2598L52.0006 61.1927L53.4426 57.7038ZM50.2396 65.4477L50.5116 66.1888C50.8856 67.2088 51.3576 68.2738 52.0416 69.6418L52.9376 71.4347L51.5446 69.9938C50.7796 69.2018 50.0186 68.4467 49.4416 67.8777L49.2946 67.7328L50.2396 65.4477ZM48.2886 70.1667L48.6146 70.4938C49.3506 71.2328 49.9926 71.8958 50.5776 72.5198L50.7226 72.6738L50.6296 72.8638C50.2126 73.7208 49.8846 74.4348 49.5976 75.1108L49.4256 75.5148L49.1046 75.2148C48.5496 74.6968 47.9286 74.1408 47.1516 73.4668L46.9846 73.3218L48.2886 70.1667ZM41.7546 85.9668L45.9946 75.7137L46.3176 75.9997C47.1026 76.6957 47.7846 77.3288 48.4036 77.9368L48.5336 78.0638L48.4516 78.3548C48.4376 78.4028 48.4236 78.4507 48.4106 78.4977L48.3626 78.6918L48.3386 78.7308C46.8976 81.0828 45.8806 83.3767 45.2296 85.7447L45.1316 86.1008L44.7996 85.9408C44.0536 85.5848 43.2196 85.5318 42.3736 85.7828L41.7546 85.9668ZM43.9096 93.3097C43.8746 93.2877 43.8386 93.2658 43.7986 93.2468C42.9056 92.8228 41.7746 92.0218 41.4636 90.6138C41.3306 90.0118 41.5256 89.2827 41.9616 88.7577C42.3186 88.3277 42.7866 88.0998 43.2776 88.1158C43.7786 88.1318 44.2036 88.3527 44.5136 88.7577L44.5906 88.8588L44.5736 88.9847C44.3916 90.3647 44.3336 91.7308 44.3996 93.0458L44.4076 93.6178L43.9096 93.3097ZM54.8566 69.6398C55.5386 68.2728 56.0096 67.2067 56.3836 66.1847L56.6546 65.4438L57.6016 67.7258L57.4536 67.8718C56.6046 68.7118 55.9566 69.3648 55.3526 69.9908L53.9606 71.4338L54.8566 69.6398ZM50.4006 80.8148L50.5276 80.1797L50.9396 80.6788C51.2396 81.0418 51.5356 81.4208 51.8446 81.8378L51.9696 82.0058L51.8586 82.1838C51.3406 83.0168 50.8796 83.8698 50.4916 84.7178L49.7896 86.2508L49.9046 84.5688C49.9926 83.2898 50.1596 82.0267 50.4006 80.8148ZM50.6066 102.029C48.6626 99.7537 47.4106 97.0568 46.9856 94.2298L46.9746 94.1558L46.9986 94.0848C47.1516 93.6368 47.2666 93.2217 47.3526 92.8177L47.6666 91.3398L47.9566 92.8227C48.5666 95.9477 49.6286 98.9288 51.1126 101.683L52.4796 104.219L50.6066 102.029ZM56.3306 102.025L54.4616 104.217L55.8246 101.679C57.3056 98.9238 58.3636 95.9408 58.9706 92.8148L59.2586 91.3307L59.5736 92.8088C59.6596 93.2128 59.7756 93.6278 59.9286 94.0748L59.9526 94.1457L59.9416 94.2198C59.5206 97.0498 58.2716 99.7478 56.3306 102.025ZM63.1276 93.2358C63.0886 93.2548 63.0546 93.2767 62.9946 93.3127L62.4976 93.6168L62.5266 93.0348C62.5916 91.7198 62.5316 90.3538 62.3486 88.9748L62.3316 88.8487L62.4086 88.7477C62.7166 88.3427 63.1436 88.1198 63.6436 88.1038C63.8556 88.0967 64.0646 88.1348 64.2636 88.2178C65.1036 88.5648 65.6636 89.6788 65.4606 90.6008C65.1506 92.0088 64.0206 92.8108 63.1276 93.2358ZM70.4246 82.4858C69.6506 82.7568 69.0186 83.3118 68.5966 84.0898L68.2896 84.6568L64.0376 74.4087L64.4686 74.3827C65.5116 74.3197 66.4416 74.2858 67.3126 74.2768L67.4946 74.2748L67.6406 74.5367C67.6646 74.5817 67.6896 74.6258 67.7146 74.6708L67.7936 74.8008L67.8276 74.8848C68.4716 77.5668 69.3756 79.9078 70.5896 82.0428L70.7716 82.3638L70.4246 82.4858ZM73.0636 77.9048C72.2216 76.9388 71.4466 75.9278 70.7606 74.8998L70.4016 74.3608L71.0466 74.4217C71.5116 74.4657 71.9886 74.5247 72.5056 74.6017L72.7126 74.6327L72.7606 74.8368C72.9826 75.7918 73.2606 76.7198 73.5856 77.5958L74.1726 79.1758L73.0636 77.9048ZM75.0046 88.3248C74.9646 88.3338 74.9246 88.3428 74.8836 88.3578C73.7826 88.7508 72.7416 88.7677 71.8726 88.4087C71.6986 88.3367 71.5296 88.2488 71.3706 88.1468C70.8506 87.8158 70.4736 87.1618 70.4106 86.4828C70.3586 85.9258 70.5286 85.4337 70.8876 85.0967C71.2526 84.7547 71.7116 84.6098 72.2156 84.6778L72.3416 84.6948L72.4186 84.7948C73.2656 85.8988 74.1906 86.9067 75.1676 87.7887L75.5756 88.1877L75.0046 88.3248ZM85.9056 89.7538C84.1896 89.6188 82.5446 89.2308 81.0186 88.5998C79.8856 88.1308 78.8126 87.5257 77.8296 86.7997L77.7696 86.7558L77.7366 86.6888C77.5266 86.2628 77.3156 85.8878 77.0916 85.5428L76.2656 84.2748L77.5216 85.1197C79.2816 86.3047 81.1566 87.3118 83.0946 88.1128C84.0506 88.5078 85.0346 88.8578 86.0176 89.1528L88.7776 89.9798L85.9056 89.7538ZM89.3496 85.8168C88.4486 82.8218 87.0876 79.9648 85.3066 77.3248L84.4606 76.0708L85.7296 76.8938C86.0766 77.1188 86.4516 77.3298 86.8766 77.5378L86.9436 77.5708L86.9886 77.6308C88.6896 79.9288 89.7146 82.7198 89.9526 85.7038L90.1816 88.5757L89.3496 85.8168Z" fill="#E8D6A0"/>
</svg>
